<svg width="25" height="29" viewBox="0 0 25 29" fill="none" xmlns="http://www.w3.org/2000/svg">
<path d="M13.659 2.839C12.222 1.964 10.365 2.893 10.204 4.568L9.95998 7.095H14C14.3315 7.095 14.6494 7.2267 14.8839 7.46112C15.1183 7.69554 15.25 8.01348 15.25 8.345C15.25 8.67652 15.1183 8.99446 14.8839 9.22888C14.6494 9.4633 14.3315 9.595 14 9.595H9.71998L8.28998 24.425C7.94398 28.003 3.75198 29.753 0.965984 27.481L0.459984 27.068C0.202989 26.8585 0.0397524 26.5554 0.00618337 26.2256C-0.0273856 25.8957 0.0714631 25.566 0.280984 25.309C0.490505 25.052 0.793536 24.8888 1.12341 24.8552C1.45329 24.8216 1.78299 24.9205 2.03998 25.13L2.54598 25.543C3.78398 26.553 5.64698 25.775 5.80098 24.185L7.20698 9.595H5.12998C4.79846 9.595 4.48052 9.4633 4.2461 9.22888C4.01168 8.99446 3.87998 8.67652 3.87998 8.345C3.87998 8.01348 4.01168 7.69554 4.2461 7.46112C4.48052 7.2267 4.79846 7.095 5.12998 7.095H7.44998L7.71598 4.328C8.05498 0.817 11.948 -1.132 14.96 0.703L15.9 1.276C16.0402 1.36136 16.1623 1.47351 16.2592 1.60604C16.3561 1.73857 16.426 1.8889 16.4648 2.04843C16.5036 2.20796 16.5106 2.37357 16.4854 2.53582C16.4602 2.69806 16.4033 2.85375 16.318 2.994C16.2326 3.13425 16.1205 3.25632 15.9879 3.35323C15.8554 3.45014 15.7051 3.51999 15.5456 3.55881C15.2234 3.6372 14.8832 3.58439 14.6 3.412L13.659 2.839ZM24.634 14.23C24.8684 13.9955 25.0001 13.6776 25.0001 13.346C25.0001 13.0144 24.8684 12.6965 24.634 12.462C24.3995 12.2275 24.0815 12.0958 23.75 12.0958C23.4184 12.0958 23.1004 12.2275 22.866 12.462L18.476 16.854L17.102 13.957C16.8992 13.5296 16.6044 13.1523 16.2385 12.8524C15.8727 12.5524 15.4449 12.3372 14.986 12.2222C14.5271 12.1072 14.0484 12.0952 13.5844 12.1872C13.1203 12.2791 12.6824 12.4727 12.302 12.754L11.507 13.341C11.2465 13.5403 11.0748 13.8339 11.0289 14.1587C10.983 14.4834 11.0665 14.8131 11.2614 15.0768C11.4564 15.3405 11.7472 15.5171 12.0711 15.5683C12.395 15.6196 12.7261 15.5416 12.993 15.351L13.788 14.764C13.8716 14.7022 13.9679 14.6596 14.0699 14.6394C14.172 14.6192 14.2772 14.6219 14.3781 14.6472C14.479 14.6726 14.573 14.72 14.6534 14.786C14.7338 14.852 14.7985 14.935 14.843 15.029L16.6 18.73L11.367 23.964C11.2509 24.0801 11.1588 24.2179 11.096 24.3696C11.0332 24.5213 11.0008 24.6838 11.0008 24.848C11.0008 25.0122 11.0332 25.1747 11.096 25.3264C11.1588 25.4781 11.2509 25.6159 11.367 25.732C11.6014 25.9665 11.9194 26.0982 12.251 26.0982C12.4152 26.0982 12.5777 26.0658 12.7294 26.003C12.8811 25.9402 13.0189 25.8481 13.135 25.732L17.737 21.129L19.24 24.299C19.4545 24.7516 19.7722 25.1476 20.1675 25.4552C20.5629 25.7628 21.0248 25.9734 21.5162 26.0702C22.0077 26.1669 22.515 26.1471 22.9974 26.0123C23.4798 25.8775 23.9239 25.6315 24.294 25.294L24.593 25.022C24.7143 24.9114 24.8127 24.778 24.8825 24.6294C24.9523 24.4809 24.9921 24.32 24.9997 24.156C25.0073 23.992 24.9826 23.8281 24.9269 23.6737C24.8711 23.5193 24.7856 23.3773 24.675 23.256C24.5644 23.1347 24.431 23.0363 24.2824 22.9665C24.1338 22.8967 23.973 22.8569 23.809 22.8492C23.645 22.8416 23.4811 22.8664 23.3267 22.9221C23.1723 22.9778 23.0303 23.0634 22.909 23.174L22.61 23.446C22.5286 23.5198 22.431 23.5736 22.3251 23.603C22.2191 23.6324 22.1078 23.6367 22 23.6154C21.8921 23.5941 21.7907 23.5479 21.7039 23.4805C21.6171 23.413 21.5473 23.3262 21.5 23.227L19.614 19.251L24.634 14.23Z" fill="#F0D43A"/>
</svg>
