<svg width="220" height="126" viewBox="0 0 220 126" fill="none" xmlns="http://www.w3.org/2000/svg">
<g filter="url(#filter0_d_561_234)">
<path fill-rule="evenodd" clip-rule="evenodd" d="M30 22C26.6863 22 24 24.6863 24 28V84.2937C24 87.6074 26.6863 90.2937 30 90.2937H83.87L83.4523 100.441L89.4592 90.2937H190C193.314 90.2937 196 87.6074 196 84.2937V28C196 24.6863 193.314 22 190 22H30Z" fill="white" shape-rendering="crispEdges"/>
<path d="M83.87 90.2937L84.1198 90.3039L84.1305 90.0437H83.87V90.2937ZM83.4523 100.441L83.2025 100.431L83.6674 100.569L83.4523 100.441ZM89.4592 90.2937V90.0437H89.3167L89.2441 90.1663L89.4592 90.2937ZM24.25 28C24.25 24.8244 26.8244 22.25 30 22.25V21.75C26.5482 21.75 23.75 24.5482 23.75 28H24.25ZM24.25 84.2937V28H23.75V84.2937H24.25ZM30 90.0437C26.8244 90.0437 24.25 87.4693 24.25 84.2937H23.75C23.75 87.7454 26.5482 90.5437 30 90.5437V90.0437ZM83.87 90.0437H30V90.5437H83.87V90.0437ZM83.7021 100.451L84.1198 90.3039L83.6202 90.2834L83.2025 100.431L83.7021 100.451ZM89.2441 90.1663L83.2372 100.314L83.6674 100.569L89.6743 90.421L89.2441 90.1663ZM190 90.0437H89.4592V90.5437H190V90.0437ZM195.75 84.2937C195.75 87.4693 193.176 90.0437 190 90.0437V90.5437C193.452 90.5437 196.25 87.7454 196.25 84.2937H195.75ZM195.75 28V84.2937H196.25V28H195.75ZM190 22.25C193.176 22.25 195.75 24.8244 195.75 28H196.25C196.25 24.5482 193.452 21.75 190 21.75V22.25ZM30 22.25H190V21.75H30V22.25Z" fill="#5E5E5E" fill-opacity="0.2"/>
</g>
<defs>
<filter id="filter0_d_561_234" x="0.75" y="0.75" width="218.5" height="124.819" filterUnits="userSpaceOnUse" color-interpolation-filters="sRGB">
<feFlood flood-opacity="0" result="BackgroundImageFix"/>
<feColorMatrix in="SourceAlpha" type="matrix" values="0 0 0 0 0 0 0 0 0 0 0 0 0 0 0 0 0 0 127 0" result="hardAlpha"/>
<feOffset dy="2"/>
<feGaussianBlur stdDeviation="11.5"/>
<feComposite in2="hardAlpha" operator="out"/>
<feColorMatrix type="matrix" values="0 0 0 0 0.466667 0 0 0 0 0.4375 0 0 0 0 0.4375 0 0 0 0.25 0"/>
<feBlend mode="normal" in2="BackgroundImageFix" result="effect1_dropShadow_561_234"/>
<feBlend mode="normal" in="SourceGraphic" in2="effect1_dropShadow_561_234" result="shape"/>
</filter>
</defs>
</svg>
