<svg width="23" height="16" viewBox="0 0 23 16" fill="none" xmlns="http://www.w3.org/2000/svg">
<path opacity="0.2" d="M22.1902 7.77689C17.0449 18.8537 14.4306 13.3353 11.8162 7.81601L22.1902 7.77689ZM1.44228 7.85512L11.8162 7.81601C9.20189 2.29667 6.58757 -3.22167 1.44228 7.85512Z" fill="#4593C9"/>
<path d="M22.9135 8.11334C20.7366 12.7899 18.8097 14.9717 16.8347 14.9792C14.3309 14.9886 12.7593 11.6708 11.0952 8.1579C9.78202 5.38578 8.29386 2.24326 6.80759 2.24886C5.1717 2.25503 3.19968 5.97419 2.16963 8.19155C2.07795 8.37943 1.9162 8.52383 1.71917 8.5937C1.52213 8.66357 1.30554 8.65333 1.11598 8.56518C0.926415 8.47703 0.779014 8.31801 0.70547 8.12231C0.631927 7.92662 0.638115 7.70988 0.722704 7.5187C2.89061 2.84218 4.82254 0.660331 6.80157 0.65287C9.30528 0.643431 10.8769 3.9612 12.541 7.47414C13.8502 10.2463 15.3384 13.3888 16.8247 13.3832C18.4605 13.377 20.4326 9.65786 21.4626 7.44051C21.5543 7.25262 21.716 7.10822 21.9131 7.03835C22.1101 6.96848 22.3267 6.97873 22.5163 7.06688C22.7058 7.15503 22.8532 7.31405 22.9268 7.50974C23.0003 7.70544 22.9941 7.92218 22.9095 8.11336L22.9135 8.11334Z" fill="#4593C9"/>
</svg>
