<svg width="220" height="126" viewBox="0 0 220 126" fill="none" xmlns="http://www.w3.org/2000/svg">
<g filter="url(#filter0_d_265_617)">
<path fill-rule="evenodd" clip-rule="evenodd" d="M30 22C26.6863 22 24 24.6863 24 28V84.2937C24 87.6074 26.6863 90.2937 30 90.2937H83.87L83.4523 100.441L89.4592 90.2937H190C193.314 90.2937 196 87.6074 196 84.2937V28C196 24.6863 193.314 22 190 22H30Z" fill="white" shape-rendering="crispEdges"/>
<path d="M83.87 90.2937L84.1198 90.3039L84.1305 90.0437H83.87V90.2937ZM83.4523 100.441L83.2025 100.431L83.6674 100.569L83.4523 100.441ZM89.4592 90.2937V90.0437H89.3167L89.2441 90.1663L89.4592 90.2937ZM24.25 28C24.25 24.8244 26.8244 22.25 30 22.25V21.75C26.5482 21.75 23.75 24.5482 23.75 28H24.25ZM24.25 84.2937V28H23.75V84.2937H24.25ZM30 90.0437C26.8244 90.0437 24.25 87.4693 24.25 84.2937H23.75C23.75 87.7454 26.5482 90.5437 30 90.5437V90.0437ZM83.87 90.0437H30V90.5437H83.87V90.0437ZM83.7021 100.451L84.1198 90.3039L83.6202 90.2834L83.2025 100.431L83.7021 100.451ZM89.2441 90.1663L83.2372 100.314L83.6674 100.569L89.6743 90.421L89.2441 90.1663ZM190 90.0437H89.4592V90.5437H190V90.0437ZM195.75 84.2937C195.75 87.4693 193.176 90.0437 190 90.0437V90.5437C193.452 90.5437 196.25 87.7454 196.25 84.2937H195.75ZM195.75 28V84.2937H196.25V28H195.75ZM190 22.25C193.176 22.25 195.75 24.8244 195.75 28H196.25C196.25 24.5482 193.452 21.75 190 21.75V22.25ZM30 22.25H190V21.75H30V22.25Z" fill="#5E5E5E" fill-opacity="0.2"/>
</g>
<path d="M38.1 61C38.0267 61 37.97 60.98 37.93 60.94C37.89 60.8933 37.87 60.8367 37.87 60.77V54.24C37.87 54.1667 37.89 54.11 37.93 54.07C37.97 54.0233 38.0267 54 38.1 54H40.64C41.1333 54 41.56 54.08 41.92 54.24C42.2867 54.4 42.57 54.64 42.77 54.96C42.97 55.2733 43.07 55.6667 43.07 56.14C43.07 56.6133 42.97 57.0067 42.77 57.32C42.57 57.6333 42.2867 57.87 41.92 58.03C41.56 58.19 41.1333 58.27 40.64 58.27H38.87V60.77C38.87 60.8367 38.8467 60.8933 38.8 60.94C38.76 60.98 38.7033 61 38.63 61H38.1ZM38.86 57.43H40.59C41.0833 57.43 41.4533 57.32 41.7 57.1C41.9467 56.88 42.07 56.56 42.07 56.14C42.07 55.7267 41.95 55.4067 41.71 55.18C41.47 54.9533 41.0967 54.84 40.59 54.84H38.86V57.43ZM44.386 61C44.3193 61 44.2627 60.98 44.216 60.94C44.176 60.8933 44.156 60.8367 44.156 60.77V56.04C44.156 55.9733 44.176 55.9167 44.216 55.87C44.2627 55.8233 44.3193 55.8 44.386 55.8H44.846C44.9127 55.8 44.9693 55.8233 45.016 55.87C45.0627 55.9167 45.086 55.9733 45.086 56.04V56.48C45.2193 56.2533 45.4027 56.0833 45.636 55.97C45.8693 55.8567 46.1493 55.8 46.476 55.8H46.876C46.9427 55.8 46.996 55.8233 47.036 55.87C47.076 55.91 47.096 55.9633 47.096 56.03V56.44C47.096 56.5067 47.076 56.56 47.036 56.6C46.996 56.64 46.9427 56.66 46.876 56.66H46.276C45.916 56.66 45.6327 56.7667 45.426 56.98C45.2193 57.1867 45.116 57.47 45.116 57.83V60.77C45.116 60.8367 45.0927 60.8933 45.046 60.94C44.9993 60.98 44.9427 61 44.876 61H44.386ZM49.9872 61.1C49.4805 61.1 49.0572 61.0033 48.7172 60.81C48.3772 60.6167 48.1172 60.35 47.9372 60.01C47.7572 59.6633 47.6572 59.27 47.6372 58.83C47.6305 58.7167 47.6272 58.5733 47.6272 58.4C47.6272 58.22 47.6305 58.0767 47.6372 57.97C47.6572 57.5233 47.7572 57.13 47.9372 56.79C48.1239 56.45 48.3872 56.1833 48.7272 55.99C49.0672 55.7967 49.4872 55.7 49.9872 55.7C50.4872 55.7 50.9072 55.7967 51.2472 55.99C51.5872 56.1833 51.8472 56.45 52.0272 56.79C52.2139 57.13 52.3172 57.5233 52.3372 57.97C52.3439 58.0767 52.3472 58.22 52.3472 58.4C52.3472 58.5733 52.3439 58.7167 52.3372 58.83C52.3172 59.27 52.2172 59.6633 52.0372 60.01C51.8572 60.35 51.5972 60.6167 51.2572 60.81C50.9172 61.0033 50.4939 61.1 49.9872 61.1ZM49.9872 60.33C50.4005 60.33 50.7305 60.2 50.9772 59.94C51.2239 59.6733 51.3572 59.2867 51.3772 58.78C51.3839 58.68 51.3872 58.5533 51.3872 58.4C51.3872 58.2467 51.3839 58.12 51.3772 58.02C51.3572 57.5133 51.2239 57.13 50.9772 56.87C50.7305 56.6033 50.4005 56.47 49.9872 56.47C49.5739 56.47 49.2405 56.6033 48.9872 56.87C48.7405 57.13 48.6105 57.5133 48.5972 58.02C48.5905 58.12 48.5872 58.2467 48.5872 58.4C48.5872 58.5533 48.5905 58.68 48.5972 58.78C48.6105 59.2867 48.7405 59.6733 48.9872 59.94C49.2405 60.2 49.5739 60.33 49.9872 60.33ZM54.2908 61C54.2241 61 54.1674 60.98 54.1208 60.94C54.0808 60.8933 54.0608 60.8367 54.0608 60.77V56.6H53.2108C53.1441 56.6 53.0874 56.58 53.0408 56.54C53.0008 56.4933 52.9808 56.4367 52.9808 56.37V56.03C52.9808 55.9633 53.0008 55.91 53.0408 55.87C53.0874 55.8233 53.1441 55.8 53.2108 55.8H54.0608V55.3C54.0608 54.96 54.1174 54.6633 54.2308 54.41C54.3441 54.15 54.5241 53.95 54.7708 53.81C55.0241 53.67 55.3608 53.6 55.7808 53.6H56.3808C56.4474 53.6 56.5008 53.6233 56.5408 53.67C56.5808 53.71 56.6008 53.7633 56.6008 53.83V54.17C56.6008 54.2367 56.5808 54.2933 56.5408 54.34C56.5008 54.38 56.4474 54.4 56.3808 54.4H55.8008C55.4874 54.4 55.2741 54.4833 55.1608 54.65C55.0474 54.81 54.9908 55.0433 54.9908 55.35V55.8H56.2808C56.3474 55.8 56.4008 55.8233 56.4408 55.87C56.4808 55.91 56.5008 55.9633 56.5008 56.03V56.37C56.5008 56.4367 56.4808 56.4933 56.4408 56.54C56.4008 56.58 56.3474 56.6 56.2808 56.6H54.9908V60.77C54.9908 60.8367 54.9674 60.8933 54.9208 60.94C54.8808 60.98 54.8274 61 54.7608 61H54.2908ZM59.3608 61.1C58.6741 61.1 58.1274 60.89 57.7208 60.47C57.3141 60.0433 57.0908 59.4633 57.0508 58.73C57.0441 58.6433 57.0408 58.5333 57.0408 58.4C57.0408 58.26 57.0441 58.1467 57.0508 58.06C57.0774 57.5867 57.1874 57.1733 57.3808 56.82C57.5741 56.46 57.8374 56.1833 58.1708 55.99C58.5108 55.7967 58.9074 55.7 59.3608 55.7C59.8674 55.7 60.2908 55.8067 60.6308 56.02C60.9774 56.2333 61.2408 56.5367 61.4208 56.93C61.6008 57.3233 61.6908 57.7833 61.6908 58.31V58.48C61.6908 58.5533 61.6674 58.61 61.6208 58.65C61.5808 58.69 61.5274 58.71 61.4608 58.71H58.0008C58.0008 58.7167 58.0008 58.73 58.0008 58.75C58.0008 58.77 58.0008 58.7867 58.0008 58.8C58.0141 59.0733 58.0741 59.33 58.1808 59.57C58.2874 59.8033 58.4408 59.9933 58.6408 60.14C58.8408 60.2867 59.0808 60.36 59.3608 60.36C59.6008 60.36 59.8008 60.3233 59.9608 60.25C60.1208 60.1767 60.2508 60.0967 60.3508 60.01C60.4508 59.9167 60.5174 59.8467 60.5508 59.8C60.6108 59.7133 60.6574 59.6633 60.6908 59.65C60.7241 59.63 60.7774 59.62 60.8508 59.62H61.3308C61.3974 59.62 61.4508 59.64 61.4908 59.68C61.5374 59.7133 61.5574 59.7633 61.5508 59.83C61.5441 59.93 61.4908 60.0533 61.3908 60.2C61.2908 60.34 61.1474 60.48 60.9608 60.62C60.7741 60.76 60.5474 60.8767 60.2808 60.97C60.0141 61.0567 59.7074 61.1 59.3608 61.1ZM58.0008 58.02H60.7408V57.99C60.7408 57.69 60.6841 57.4233 60.5708 57.19C60.4641 56.9567 60.3074 56.7733 60.1008 56.64C59.8941 56.5 59.6474 56.43 59.3608 56.43C59.0741 56.43 58.8274 56.5 58.6208 56.64C58.4208 56.7733 58.2674 56.9567 58.1608 57.19C58.0541 57.4233 58.0008 57.69 58.0008 57.99V58.02ZM64.6865 61.1C64.3132 61.1 63.9932 61.0533 63.7265 60.96C63.4598 60.8667 63.2432 60.7533 63.0765 60.62C62.9098 60.4867 62.7832 60.3533 62.6965 60.22C62.6165 60.0867 62.5732 59.98 62.5665 59.9C62.5598 59.8267 62.5832 59.77 62.6365 59.73C62.6898 59.69 62.7432 59.67 62.7965 59.67H63.2365C63.2765 59.67 63.3065 59.6767 63.3265 59.69C63.3532 59.6967 63.3865 59.7233 63.4265 59.77C63.5132 59.8633 63.6098 59.9567 63.7165 60.05C63.8232 60.1433 63.9532 60.22 64.1065 60.28C64.2665 60.34 64.4632 60.37 64.6965 60.37C65.0365 60.37 65.3165 60.3067 65.5365 60.18C65.7565 60.0467 65.8665 59.8533 65.8665 59.6C65.8665 59.4333 65.8198 59.3 65.7265 59.2C65.6398 59.1 65.4798 59.01 65.2465 58.93C65.0198 58.85 64.7065 58.7667 64.3065 58.68C63.9065 58.5867 63.5898 58.4733 63.3565 58.34C63.1232 58.2 62.9565 58.0367 62.8565 57.85C62.7565 57.6567 62.7065 57.44 62.7065 57.2C62.7065 56.9533 62.7798 56.7167 62.9265 56.49C63.0732 56.2567 63.2865 56.0667 63.5665 55.92C63.8532 55.7733 64.2098 55.7 64.6365 55.7C64.9832 55.7 65.2798 55.7433 65.5265 55.83C65.7732 55.9167 65.9765 56.0267 66.1365 56.16C66.2965 56.2867 66.4165 56.4133 66.4965 56.54C66.5765 56.6667 66.6198 56.7733 66.6265 56.86C66.6332 56.9267 66.6132 56.9833 66.5665 57.03C66.5198 57.07 66.4665 57.09 66.4065 57.09H65.9865C65.9398 57.09 65.8998 57.08 65.8665 57.06C65.8398 57.04 65.8132 57.0167 65.7865 56.99C65.7198 56.9033 65.6398 56.8167 65.5465 56.73C65.4598 56.6433 65.3432 56.5733 65.1965 56.52C65.0565 56.46 64.8698 56.43 64.6365 56.43C64.3032 56.43 64.0532 56.5 63.8865 56.64C63.7198 56.78 63.6365 56.9567 63.6365 57.17C63.6365 57.2967 63.6732 57.41 63.7465 57.51C63.8198 57.61 63.9598 57.7 64.1665 57.78C64.3732 57.86 64.6798 57.9467 65.0865 58.04C65.5265 58.1267 65.8732 58.2433 66.1265 58.39C66.3798 58.5367 66.5598 58.7067 66.6665 58.9C66.7732 59.0933 66.8265 59.3167 66.8265 59.57C66.8265 59.85 66.7432 60.1067 66.5765 60.34C66.4165 60.5733 66.1765 60.76 65.8565 60.9C65.5432 61.0333 65.1532 61.1 64.6865 61.1ZM69.7841 61.1C69.4108 61.1 69.0908 61.0533 68.8241 60.96C68.5575 60.8667 68.3408 60.7533 68.1741 60.62C68.0075 60.4867 67.8808 60.3533 67.7941 60.22C67.7141 60.0867 67.6708 59.98 67.6641 59.9C67.6575 59.8267 67.6808 59.77 67.7341 59.73C67.7875 59.69 67.8408 59.67 67.8941 59.67H68.3341C68.3741 59.67 68.4041 59.6767 68.4241 59.69C68.4508 59.6967 68.4841 59.7233 68.5241 59.77C68.6108 59.8633 68.7075 59.9567 68.8141 60.05C68.9208 60.1433 69.0508 60.22 69.2041 60.28C69.3641 60.34 69.5608 60.37 69.7941 60.37C70.1341 60.37 70.4141 60.3067 70.6341 60.18C70.8541 60.0467 70.9641 59.8533 70.9641 59.6C70.9641 59.4333 70.9175 59.3 70.8241 59.2C70.7375 59.1 70.5775 59.01 70.3441 58.93C70.1175 58.85 69.8041 58.7667 69.4041 58.68C69.0041 58.5867 68.6875 58.4733 68.4541 58.34C68.2208 58.2 68.0541 58.0367 67.9541 57.85C67.8541 57.6567 67.8041 57.44 67.8041 57.2C67.8041 56.9533 67.8775 56.7167 68.0241 56.49C68.1708 56.2567 68.3841 56.0667 68.6641 55.92C68.9508 55.7733 69.3075 55.7 69.7341 55.7C70.0808 55.7 70.3775 55.7433 70.6241 55.83C70.8708 55.9167 71.0741 56.0267 71.2341 56.16C71.3941 56.2867 71.5141 56.4133 71.5941 56.54C71.6741 56.6667 71.7175 56.7733 71.7241 56.86C71.7308 56.9267 71.7108 56.9833 71.6641 57.03C71.6175 57.07 71.5641 57.09 71.5041 57.09H71.0841C71.0375 57.09 70.9975 57.08 70.9641 57.06C70.9375 57.04 70.9108 57.0167 70.8841 56.99C70.8175 56.9033 70.7375 56.8167 70.6441 56.73C70.5575 56.6433 70.4408 56.5733 70.2941 56.52C70.1541 56.46 69.9675 56.43 69.7341 56.43C69.4008 56.43 69.1508 56.5 68.9841 56.64C68.8175 56.78 68.7341 56.9567 68.7341 57.17C68.7341 57.2967 68.7708 57.41 68.8441 57.51C68.9175 57.61 69.0575 57.7 69.2641 57.78C69.4708 57.86 69.7775 57.9467 70.1841 58.04C70.6241 58.1267 70.9708 58.2433 71.2241 58.39C71.4775 58.5367 71.6575 58.7067 71.7641 58.9C71.8708 59.0933 71.9241 59.3167 71.9241 59.57C71.9241 59.85 71.8408 60.1067 71.6741 60.34C71.5141 60.5733 71.2741 60.76 70.9541 60.9C70.6408 61.0333 70.2508 61.1 69.7841 61.1ZM75.2118 61.1C74.7051 61.1 74.2818 61.0033 73.9418 60.81C73.6018 60.6167 73.3418 60.35 73.1618 60.01C72.9818 59.6633 72.8818 59.27 72.8618 58.83C72.8551 58.7167 72.8518 58.5733 72.8518 58.4C72.8518 58.22 72.8551 58.0767 72.8618 57.97C72.8818 57.5233 72.9818 57.13 73.1618 56.79C73.3485 56.45 73.6118 56.1833 73.9518 55.99C74.2918 55.7967 74.7118 55.7 75.2118 55.7C75.7118 55.7 76.1318 55.7967 76.4718 55.99C76.8118 56.1833 77.0718 56.45 77.2518 56.79C77.4385 57.13 77.5418 57.5233 77.5618 57.97C77.5685 58.0767 77.5718 58.22 77.5718 58.4C77.5718 58.5733 77.5685 58.7167 77.5618 58.83C77.5418 59.27 77.4418 59.6633 77.2618 60.01C77.0818 60.35 76.8218 60.6167 76.4818 60.81C76.1418 61.0033 75.7185 61.1 75.2118 61.1ZM75.2118 60.33C75.6251 60.33 75.9551 60.2 76.2018 59.94C76.4485 59.6733 76.5818 59.2867 76.6018 58.78C76.6085 58.68 76.6118 58.5533 76.6118 58.4C76.6118 58.2467 76.6085 58.12 76.6018 58.02C76.5818 57.5133 76.4485 57.13 76.2018 56.87C75.9551 56.6033 75.6251 56.47 75.2118 56.47C74.7985 56.47 74.4651 56.6033 74.2118 56.87C73.9651 57.13 73.8351 57.5133 73.8218 58.02C73.8151 58.12 73.8118 58.2467 73.8118 58.4C73.8118 58.5533 73.8151 58.68 73.8218 58.78C73.8351 59.2867 73.9651 59.6733 74.2118 59.94C74.4651 60.2 74.7985 60.33 75.2118 60.33ZM79.054 61C78.9873 61 78.9307 60.98 78.884 60.94C78.844 60.8933 78.824 60.8367 78.824 60.77V56.04C78.824 55.9733 78.844 55.9167 78.884 55.87C78.9307 55.8233 78.9873 55.8 79.054 55.8H79.514C79.5807 55.8 79.6373 55.8233 79.684 55.87C79.7307 55.9167 79.754 55.9733 79.754 56.04V56.48C79.8873 56.2533 80.0707 56.0833 80.304 55.97C80.5373 55.8567 80.8173 55.8 81.144 55.8H81.544C81.6107 55.8 81.664 55.8233 81.704 55.87C81.744 55.91 81.764 55.9633 81.764 56.03V56.44C81.764 56.5067 81.744 56.56 81.704 56.6C81.664 56.64 81.6107 56.66 81.544 56.66H80.944C80.584 56.66 80.3007 56.7667 80.094 56.98C79.8873 57.1867 79.784 57.47 79.784 57.83V60.77C79.784 60.8367 79.7607 60.8933 79.714 60.94C79.6673 60.98 79.6107 61 79.544 61H79.054ZM85.1996 61C85.1263 61 85.0696 60.98 85.0296 60.94C84.9896 60.8933 84.9696 60.8367 84.9696 60.77V54.24C84.9696 54.1667 84.9896 54.11 85.0296 54.07C85.0696 54.0233 85.1263 54 85.1996 54H89.3296C89.4029 54 89.4596 54.0233 89.4996 54.07C89.5396 54.11 89.5596 54.1667 89.5596 54.24V54.62C89.5596 54.6933 89.5396 54.75 89.4996 54.79C89.4596 54.83 89.4029 54.85 89.3296 54.85H85.9296V57.04H89.1096C89.1829 57.04 89.2396 57.0633 89.2796 57.11C89.3196 57.15 89.3396 57.2067 89.3396 57.28V57.65C89.3396 57.7167 89.3196 57.7733 89.2796 57.82C89.2396 57.86 89.1829 57.88 89.1096 57.88H85.9296V60.15H89.4096C89.4829 60.15 89.5396 60.17 89.5796 60.21C89.6196 60.25 89.6396 60.3067 89.6396 60.38V60.77C89.6396 60.8367 89.6196 60.8933 89.5796 60.94C89.5396 60.98 89.4829 61 89.4096 61H85.1996ZM92.7041 61.1C92.3307 61.1 92.0107 61.0533 91.7441 60.96C91.4774 60.8667 91.2607 60.7533 91.0941 60.62C90.9274 60.4867 90.8007 60.3533 90.7141 60.22C90.6341 60.0867 90.5907 59.98 90.5841 59.9C90.5774 59.8267 90.6007 59.77 90.6541 59.73C90.7074 59.69 90.7607 59.67 90.8141 59.67H91.2541C91.2941 59.67 91.3241 59.6767 91.3441 59.69C91.3707 59.6967 91.4041 59.7233 91.4441 59.77C91.5307 59.8633 91.6274 59.9567 91.7341 60.05C91.8407 60.1433 91.9707 60.22 92.1241 60.28C92.2841 60.34 92.4807 60.37 92.7141 60.37C93.0541 60.37 93.3341 60.3067 93.5541 60.18C93.7741 60.0467 93.8841 59.8533 93.8841 59.6C93.8841 59.4333 93.8374 59.3 93.7441 59.2C93.6574 59.1 93.4974 59.01 93.2641 58.93C93.0374 58.85 92.7241 58.7667 92.3241 58.68C91.9241 58.5867 91.6074 58.4733 91.3741 58.34C91.1407 58.2 90.9741 58.0367 90.8741 57.85C90.7741 57.6567 90.7241 57.44 90.7241 57.2C90.7241 56.9533 90.7974 56.7167 90.9441 56.49C91.0907 56.2567 91.3041 56.0667 91.5841 55.92C91.8707 55.7733 92.2274 55.7 92.6541 55.7C93.0007 55.7 93.2974 55.7433 93.5441 55.83C93.7907 55.9167 93.9941 56.0267 94.1541 56.16C94.3141 56.2867 94.4341 56.4133 94.5141 56.54C94.5941 56.6667 94.6374 56.7733 94.6441 56.86C94.6507 56.9267 94.6307 56.9833 94.5841 57.03C94.5374 57.07 94.4841 57.09 94.4241 57.09H94.0041C93.9574 57.09 93.9174 57.08 93.8841 57.06C93.8574 57.04 93.8307 57.0167 93.8041 56.99C93.7374 56.9033 93.6574 56.8167 93.5641 56.73C93.4774 56.6433 93.3607 56.5733 93.2141 56.52C93.0741 56.46 92.8874 56.43 92.6541 56.43C92.3207 56.43 92.0707 56.5 91.9041 56.64C91.7374 56.78 91.6541 56.9567 91.6541 57.17C91.6541 57.2967 91.6907 57.41 91.7641 57.51C91.8374 57.61 91.9774 57.7 92.1841 57.78C92.3907 57.86 92.6974 57.9467 93.1041 58.04C93.5441 58.1267 93.8907 58.2433 94.1441 58.39C94.3974 58.5367 94.5774 58.7067 94.6841 58.9C94.7907 59.0933 94.8441 59.3167 94.8441 59.57C94.8441 59.85 94.7607 60.1067 94.5941 60.34C94.4341 60.5733 94.1941 60.76 93.8741 60.9C93.5607 61.0333 93.1707 61.1 92.7041 61.1ZM98.022 61C97.6486 61 97.3453 60.93 97.112 60.79C96.8786 60.6433 96.7086 60.44 96.602 60.18C96.4953 59.9133 96.442 59.6 96.442 59.24V56.6H95.662C95.5953 56.6 95.5386 56.58 95.492 56.54C95.452 56.4933 95.432 56.4367 95.432 56.37V56.03C95.432 55.9633 95.452 55.91 95.492 55.87C95.5386 55.8233 95.5953 55.8 95.662 55.8H96.442V54.13C96.442 54.0633 96.462 54.01 96.502 53.97C96.5486 53.9233 96.6053 53.9 96.672 53.9H97.142C97.2086 53.9 97.262 53.9233 97.302 53.97C97.3486 54.01 97.372 54.0633 97.372 54.13V55.8H98.612C98.6786 55.8 98.732 55.8233 98.772 55.87C98.8186 55.91 98.842 55.9633 98.842 56.03V56.37C98.842 56.4367 98.8186 56.4933 98.772 56.54C98.732 56.58 98.6786 56.6 98.612 56.6H97.372V59.17C97.372 59.4833 97.4253 59.73 97.532 59.91C97.6386 60.09 97.8286 60.18 98.102 60.18H98.712C98.7786 60.18 98.832 60.2033 98.872 60.25C98.9186 60.29 98.942 60.3433 98.942 60.41V60.77C98.942 60.8367 98.9186 60.8933 98.872 60.94C98.832 60.98 98.7786 61 98.712 61H98.022ZM100.128 61C100.062 61 100.005 60.98 99.9582 60.94C99.9182 60.8933 99.8982 60.8367 99.8982 60.77V56.04C99.8982 55.9733 99.9182 55.9167 99.9582 55.87C100.005 55.8233 100.062 55.8 100.128 55.8H100.588C100.655 55.8 100.712 55.8233 100.758 55.87C100.805 55.9167 100.828 55.9733 100.828 56.04V56.48C100.962 56.2533 101.145 56.0833 101.378 55.97C101.612 55.8567 101.892 55.8 102.218 55.8H102.618C102.685 55.8 102.738 55.8233 102.778 55.87C102.818 55.91 102.838 55.9633 102.838 56.03V56.44C102.838 56.5067 102.818 56.56 102.778 56.6C102.738 56.64 102.685 56.66 102.618 56.66H102.018C101.658 56.66 101.375 56.7667 101.168 56.98C100.962 57.1867 100.858 57.47 100.858 57.83V60.77C100.858 60.8367 100.835 60.8933 100.788 60.94C100.742 60.98 100.685 61 100.618 61H100.128ZM105.637 61.1C105.21 61.1 104.847 61.0067 104.547 60.82C104.254 60.6267 104.03 60.36 103.877 60.02C103.724 59.68 103.647 59.29 103.647 58.85V56.03C103.647 55.9633 103.667 55.91 103.707 55.87C103.754 55.8233 103.81 55.8 103.877 55.8H104.377C104.444 55.8 104.497 55.8233 104.537 55.87C104.584 55.91 104.607 55.9633 104.607 56.03V58.8C104.607 59.7933 105.04 60.29 105.907 60.29C106.32 60.29 106.65 60.16 106.897 59.9C107.15 59.6333 107.277 59.2667 107.277 58.8V56.03C107.277 55.9633 107.297 55.91 107.337 55.87C107.384 55.8233 107.44 55.8 107.507 55.8H107.997C108.07 55.8 108.127 55.8233 108.167 55.87C108.207 55.91 108.227 55.9633 108.227 56.03V60.77C108.227 60.8367 108.207 60.8933 108.167 60.94C108.127 60.98 108.07 61 107.997 61H107.537C107.47 61 107.414 60.98 107.367 60.94C107.327 60.8933 107.307 60.8367 107.307 60.77V60.33C107.127 60.5633 106.907 60.75 106.647 60.89C106.394 61.03 106.057 61.1 105.637 61.1ZM111.743 61C111.369 61 111.066 60.93 110.833 60.79C110.599 60.6433 110.429 60.44 110.323 60.18C110.216 59.9133 110.163 59.6 110.163 59.24V56.6H109.383C109.316 56.6 109.259 56.58 109.213 56.54C109.173 56.4933 109.153 56.4367 109.153 56.37V56.03C109.153 55.9633 109.173 55.91 109.213 55.87C109.259 55.8233 109.316 55.8 109.383 55.8H110.163V54.13C110.163 54.0633 110.183 54.01 110.223 53.97C110.269 53.9233 110.326 53.9 110.393 53.9H110.863C110.929 53.9 110.983 53.9233 111.023 53.97C111.069 54.01 111.093 54.0633 111.093 54.13V55.8H112.333C112.399 55.8 112.453 55.8233 112.493 55.87C112.539 55.91 112.563 55.9633 112.563 56.03V56.37C112.563 56.4367 112.539 56.4933 112.493 56.54C112.453 56.58 112.399 56.6 112.333 56.6H111.093V59.17C111.093 59.4833 111.146 59.73 111.253 59.91C111.359 60.09 111.549 60.18 111.823 60.18H112.433C112.499 60.18 112.553 60.2033 112.593 60.25C112.639 60.29 112.663 60.3433 112.663 60.41V60.77C112.663 60.8367 112.639 60.8933 112.593 60.94C112.553 60.98 112.499 61 112.433 61H111.743ZM115.559 61.1C115.132 61.1 114.769 61.0067 114.469 60.82C114.176 60.6267 113.952 60.36 113.799 60.02C113.646 59.68 113.569 59.29 113.569 58.85V56.03C113.569 55.9633 113.589 55.91 113.629 55.87C113.676 55.8233 113.732 55.8 113.799 55.8H114.299C114.366 55.8 114.419 55.8233 114.459 55.87C114.506 55.91 114.529 55.9633 114.529 56.03V58.8C114.529 59.7933 114.962 60.29 115.829 60.29C116.242 60.29 116.572 60.16 116.819 59.9C117.072 59.6333 117.199 59.2667 117.199 58.8V56.03C117.199 55.9633 117.219 55.91 117.259 55.87C117.306 55.8233 117.362 55.8 117.429 55.8H117.919C117.992 55.8 118.049 55.8233 118.089 55.87C118.129 55.91 118.149 55.9633 118.149 56.03V60.77C118.149 60.8367 118.129 60.8933 118.089 60.94C118.049 60.98 117.992 61 117.919 61H117.459C117.392 61 117.336 60.98 117.289 60.94C117.249 60.8933 117.229 60.8367 117.229 60.77V60.33C117.049 60.5633 116.829 60.75 116.569 60.89C116.316 61.03 115.979 61.1 115.559 61.1ZM119.865 61C119.798 61 119.741 60.98 119.695 60.94C119.655 60.8933 119.635 60.8367 119.635 60.77V56.04C119.635 55.9733 119.655 55.9167 119.695 55.87C119.741 55.8233 119.798 55.8 119.865 55.8H120.325C120.391 55.8 120.448 55.8233 120.495 55.87C120.541 55.9167 120.565 55.9733 120.565 56.04V56.48C120.698 56.2533 120.881 56.0833 121.115 55.97C121.348 55.8567 121.628 55.8 121.955 55.8H122.355C122.421 55.8 122.475 55.8233 122.515 55.87C122.555 55.91 122.575 55.9633 122.575 56.03V56.44C122.575 56.5067 122.555 56.56 122.515 56.6C122.475 56.64 122.421 56.66 122.355 56.66H121.755C121.395 56.66 121.111 56.7667 120.905 56.98C120.698 57.1867 120.595 57.47 120.595 57.83V60.77C120.595 60.8367 120.571 60.8933 120.525 60.94C120.478 60.98 120.421 61 120.355 61H119.865ZM124.805 61.1C124.472 61.1 124.169 61.0333 123.895 60.9C123.622 60.7667 123.402 60.5867 123.235 60.36C123.069 60.1333 122.985 59.8767 122.985 59.59C122.985 59.13 123.172 58.7633 123.545 58.49C123.919 58.2167 124.405 58.0367 125.005 57.95L126.495 57.74V57.45C126.495 57.13 126.402 56.88 126.215 56.7C126.035 56.52 125.739 56.43 125.325 56.43C125.025 56.43 124.782 56.49 124.595 56.61C124.415 56.73 124.289 56.8833 124.215 57.07C124.175 57.17 124.105 57.22 124.005 57.22H123.555C123.482 57.22 123.425 57.2 123.385 57.16C123.352 57.1133 123.335 57.06 123.335 57C123.335 56.9 123.372 56.7767 123.445 56.63C123.525 56.4833 123.645 56.34 123.805 56.2C123.965 56.06 124.169 55.9433 124.415 55.85C124.669 55.75 124.975 55.7 125.335 55.7C125.735 55.7 126.072 55.7533 126.345 55.86C126.619 55.96 126.832 56.0967 126.985 56.27C127.145 56.4433 127.259 56.64 127.325 56.86C127.399 57.08 127.435 57.3033 127.435 57.53V60.77C127.435 60.8367 127.412 60.8933 127.365 60.94C127.325 60.98 127.272 61 127.205 61H126.745C126.672 61 126.615 60.98 126.575 60.94C126.535 60.8933 126.515 60.8367 126.515 60.77V60.34C126.429 60.46 126.312 60.58 126.165 60.7C126.019 60.8133 125.835 60.91 125.615 60.99C125.395 61.0633 125.125 61.1 124.805 61.1ZM125.015 60.35C125.289 60.35 125.539 60.2933 125.765 60.18C125.992 60.06 126.169 59.8767 126.295 59.63C126.429 59.3833 126.495 59.0733 126.495 58.7V58.42L125.335 58.59C124.862 58.6567 124.505 58.77 124.265 58.93C124.025 59.0833 123.905 59.28 123.905 59.52C123.905 59.7067 123.959 59.8633 124.065 59.99C124.179 60.11 124.319 60.2 124.485 60.26C124.659 60.32 124.835 60.35 125.015 60.35ZM129.113 61C129.046 61 128.989 60.98 128.943 60.94C128.903 60.8933 128.883 60.8367 128.883 60.77V54.13C128.883 54.0633 128.903 54.01 128.943 53.97C128.989 53.9233 129.046 53.9 129.113 53.9H129.583C129.656 53.9 129.713 53.9233 129.753 53.97C129.793 54.01 129.813 54.0633 129.813 54.13V60.77C129.813 60.8367 129.793 60.8933 129.753 60.94C129.713 60.98 129.656 61 129.583 61H129.113ZM135.556 61.1C135.182 61.1 134.862 61.0533 134.596 60.96C134.329 60.8667 134.112 60.7533 133.946 60.62C133.779 60.4867 133.652 60.3533 133.566 60.22C133.486 60.0867 133.442 59.98 133.436 59.9C133.429 59.8267 133.452 59.77 133.506 59.73C133.559 59.69 133.612 59.67 133.666 59.67H134.106C134.146 59.67 134.176 59.6767 134.196 59.69C134.222 59.6967 134.256 59.7233 134.296 59.77C134.382 59.8633 134.479 59.9567 134.586 60.05C134.692 60.1433 134.822 60.22 134.976 60.28C135.136 60.34 135.332 60.37 135.566 60.37C135.906 60.37 136.186 60.3067 136.406 60.18C136.626 60.0467 136.736 59.8533 136.736 59.6C136.736 59.4333 136.689 59.3 136.596 59.2C136.509 59.1 136.349 59.01 136.116 58.93C135.889 58.85 135.576 58.7667 135.176 58.68C134.776 58.5867 134.459 58.4733 134.226 58.34C133.992 58.2 133.826 58.0367 133.726 57.85C133.626 57.6567 133.576 57.44 133.576 57.2C133.576 56.9533 133.649 56.7167 133.796 56.49C133.942 56.2567 134.156 56.0667 134.436 55.92C134.722 55.7733 135.079 55.7 135.506 55.7C135.852 55.7 136.149 55.7433 136.396 55.83C136.642 55.9167 136.846 56.0267 137.006 56.16C137.166 56.2867 137.286 56.4133 137.366 56.54C137.446 56.6667 137.489 56.7733 137.496 56.86C137.502 56.9267 137.482 56.9833 137.436 57.03C137.389 57.07 137.336 57.09 137.276 57.09H136.856C136.809 57.09 136.769 57.08 136.736 57.06C136.709 57.04 136.682 57.0167 136.656 56.99C136.589 56.9033 136.509 56.8167 136.416 56.73C136.329 56.6433 136.212 56.5733 136.066 56.52C135.926 56.46 135.739 56.43 135.506 56.43C135.172 56.43 134.922 56.5 134.756 56.64C134.589 56.78 134.506 56.9567 134.506 57.17C134.506 57.2967 134.542 57.41 134.616 57.51C134.689 57.61 134.829 57.7 135.036 57.78C135.242 57.86 135.549 57.9467 135.956 58.04C136.396 58.1267 136.742 58.2433 136.996 58.39C137.249 58.5367 137.429 58.7067 137.536 58.9C137.642 59.0933 137.696 59.3167 137.696 59.57C137.696 59.85 137.612 60.1067 137.446 60.34C137.286 60.5733 137.046 60.76 136.726 60.9C136.412 61.0333 136.022 61.1 135.556 61.1ZM140.793 61.1C140.367 61.1 140.003 61.0067 139.703 60.82C139.41 60.6267 139.187 60.36 139.033 60.02C138.88 59.68 138.803 59.29 138.803 58.85V56.03C138.803 55.9633 138.823 55.91 138.863 55.87C138.91 55.8233 138.967 55.8 139.033 55.8H139.533C139.6 55.8 139.653 55.8233 139.693 55.87C139.74 55.91 139.763 55.9633 139.763 56.03V58.8C139.763 59.7933 140.197 60.29 141.063 60.29C141.477 60.29 141.807 60.16 142.053 59.9C142.307 59.6333 142.433 59.2667 142.433 58.8V56.03C142.433 55.9633 142.453 55.91 142.493 55.87C142.54 55.8233 142.597 55.8 142.663 55.8H143.153C143.227 55.8 143.283 55.8233 143.323 55.87C143.363 55.91 143.383 55.9633 143.383 56.03V60.77C143.383 60.8367 143.363 60.8933 143.323 60.94C143.283 60.98 143.227 61 143.153 61H142.693C142.627 61 142.57 60.98 142.523 60.94C142.483 60.8933 142.463 60.8367 142.463 60.77V60.33C142.283 60.5633 142.063 60.75 141.803 60.89C141.55 61.03 141.213 61.1 140.793 61.1ZM145.109 62.9C145.042 62.9 144.986 62.8767 144.939 62.83C144.899 62.79 144.879 62.7367 144.879 62.67V56.03C144.879 55.9633 144.899 55.91 144.939 55.87C144.986 55.8233 145.042 55.8 145.109 55.8H145.569C145.636 55.8 145.689 55.8233 145.729 55.87C145.776 55.91 145.799 55.9633 145.799 56.03V56.47C145.959 56.25 146.172 56.0667 146.439 55.92C146.706 55.7733 147.039 55.7 147.439 55.7C147.812 55.7 148.129 55.7633 148.389 55.89C148.656 56.0167 148.872 56.19 149.039 56.41C149.212 56.63 149.342 56.88 149.429 57.16C149.516 57.44 149.562 57.74 149.569 58.06C149.576 58.1667 149.579 58.28 149.579 58.4C149.579 58.52 149.576 58.6333 149.569 58.74C149.562 59.0533 149.516 59.3533 149.429 59.64C149.342 59.92 149.212 60.17 149.039 60.39C148.872 60.6033 148.656 60.7767 148.389 60.91C148.129 61.0367 147.812 61.1 147.439 61.1C147.052 61.1 146.726 61.03 146.459 60.89C146.199 60.7433 145.986 60.5633 145.819 60.35V62.67C145.819 62.7367 145.799 62.79 145.759 62.83C145.719 62.8767 145.662 62.9 145.589 62.9H145.109ZM147.229 60.29C147.576 60.29 147.846 60.2167 148.039 60.07C148.239 59.9167 148.382 59.72 148.469 59.48C148.556 59.2333 148.606 58.97 148.619 58.69C148.626 58.4967 148.626 58.3033 148.619 58.11C148.606 57.83 148.556 57.57 148.469 57.33C148.382 57.0833 148.239 56.8867 148.039 56.74C147.846 56.5867 147.576 56.51 147.229 56.51C146.902 56.51 146.636 56.5867 146.429 56.74C146.229 56.8933 146.079 57.09 145.979 57.33C145.886 57.5633 145.832 57.8033 145.819 58.05C145.812 58.1567 145.809 58.2833 145.809 58.43C145.809 58.5767 145.812 58.7067 145.819 58.82C145.826 59.0533 145.879 59.2833 145.979 59.51C146.086 59.7367 146.242 59.9233 146.449 60.07C146.656 60.2167 146.916 60.29 147.229 60.29ZM152.896 61.1C152.209 61.1 151.663 60.89 151.256 60.47C150.849 60.0433 150.626 59.4633 150.586 58.73C150.579 58.6433 150.576 58.5333 150.576 58.4C150.576 58.26 150.579 58.1467 150.586 58.06C150.613 57.5867 150.723 57.1733 150.916 56.82C151.109 56.46 151.373 56.1833 151.706 55.99C152.046 55.7967 152.443 55.7 152.896 55.7C153.403 55.7 153.826 55.8067 154.166 56.02C154.513 56.2333 154.776 56.5367 154.956 56.93C155.136 57.3233 155.226 57.7833 155.226 58.31V58.48C155.226 58.5533 155.203 58.61 155.156 58.65C155.116 58.69 155.063 58.71 154.996 58.71H151.536C151.536 58.7167 151.536 58.73 151.536 58.75C151.536 58.77 151.536 58.7867 151.536 58.8C151.549 59.0733 151.609 59.33 151.716 59.57C151.823 59.8033 151.976 59.9933 152.176 60.14C152.376 60.2867 152.616 60.36 152.896 60.36C153.136 60.36 153.336 60.3233 153.496 60.25C153.656 60.1767 153.786 60.0967 153.886 60.01C153.986 59.9167 154.053 59.8467 154.086 59.8C154.146 59.7133 154.193 59.6633 154.226 59.65C154.259 59.63 154.313 59.62 154.386 59.62H154.866C154.933 59.62 154.986 59.64 155.026 59.68C155.073 59.7133 155.093 59.7633 155.086 59.83C155.079 59.93 155.026 60.0533 154.926 60.2C154.826 60.34 154.683 60.48 154.496 60.62C154.309 60.76 154.083 60.8767 153.816 60.97C153.549 61.0567 153.243 61.1 152.896 61.1ZM151.536 58.02H154.276V57.99C154.276 57.69 154.219 57.4233 154.106 57.19C153.999 56.9567 153.843 56.7733 153.636 56.64C153.429 56.5 153.183 56.43 152.896 56.43C152.609 56.43 152.363 56.5 152.156 56.64C151.956 56.7733 151.803 56.9567 151.696 57.19C151.589 57.4233 151.536 57.69 151.536 57.99V58.02ZM156.652 61C156.585 61 156.528 60.98 156.482 60.94C156.442 60.8933 156.422 60.8367 156.422 60.77V56.04C156.422 55.9733 156.442 55.9167 156.482 55.87C156.528 55.8233 156.585 55.8 156.652 55.8H157.112C157.178 55.8 157.235 55.8233 157.282 55.87C157.328 55.9167 157.352 55.9733 157.352 56.04V56.48C157.485 56.2533 157.668 56.0833 157.902 55.97C158.135 55.8567 158.415 55.8 158.742 55.8H159.142C159.208 55.8 159.262 55.8233 159.302 55.87C159.342 55.91 159.362 55.9633 159.362 56.03V56.44C159.362 56.5067 159.342 56.56 159.302 56.6C159.262 56.64 159.208 56.66 159.142 56.66H158.542C158.182 56.66 157.898 56.7667 157.692 56.98C157.485 57.1867 157.382 57.47 157.382 57.83V60.77C157.382 60.8367 157.358 60.8933 157.312 60.94C157.265 60.98 157.208 61 157.142 61H156.652ZM162.253 61.1C161.746 61.1 161.323 61.0033 160.983 60.81C160.643 60.6167 160.383 60.35 160.203 60.01C160.023 59.6633 159.923 59.27 159.903 58.83C159.896 58.7167 159.893 58.5733 159.893 58.4C159.893 58.22 159.896 58.0767 159.903 57.97C159.923 57.5233 160.023 57.13 160.203 56.79C160.389 56.45 160.653 56.1833 160.993 55.99C161.333 55.7967 161.753 55.7 162.253 55.7C162.753 55.7 163.173 55.7967 163.513 55.99C163.853 56.1833 164.113 56.45 164.293 56.79C164.479 57.13 164.583 57.5233 164.603 57.97C164.609 58.0767 164.613 58.22 164.613 58.4C164.613 58.5733 164.609 58.7167 164.603 58.83C164.583 59.27 164.483 59.6633 164.303 60.01C164.123 60.35 163.863 60.6167 163.523 60.81C163.183 61.0033 162.759 61.1 162.253 61.1ZM162.253 60.33C162.666 60.33 162.996 60.2 163.243 59.94C163.489 59.6733 163.623 59.2867 163.643 58.78C163.649 58.68 163.653 58.5533 163.653 58.4C163.653 58.2467 163.649 58.12 163.643 58.02C163.623 57.5133 163.489 57.13 163.243 56.87C162.996 56.6033 162.666 56.47 162.253 56.47C161.839 56.47 161.506 56.6033 161.253 56.87C161.006 57.13 160.876 57.5133 160.863 58.02C160.856 58.12 160.853 58.2467 160.853 58.4C160.853 58.5533 160.856 58.68 160.863 58.78C160.876 59.2867 161.006 59.6733 161.253 59.94C161.506 60.2 161.839 60.33 162.253 60.33ZM167.805 61.1C167.378 61.1 167.015 61.0067 166.715 60.82C166.422 60.6267 166.198 60.36 166.045 60.02C165.892 59.68 165.815 59.29 165.815 58.85V56.03C165.815 55.9633 165.835 55.91 165.875 55.87C165.922 55.8233 165.978 55.8 166.045 55.8H166.545C166.612 55.8 166.665 55.8233 166.705 55.87C166.752 55.91 166.775 55.9633 166.775 56.03V58.8C166.775 59.7933 167.208 60.29 168.075 60.29C168.488 60.29 168.818 60.16 169.065 59.9C169.318 59.6333 169.445 59.2667 169.445 58.8V56.03C169.445 55.9633 169.465 55.91 169.505 55.87C169.552 55.8233 169.608 55.8 169.675 55.8H170.165C170.238 55.8 170.295 55.8233 170.335 55.87C170.375 55.91 170.395 55.9633 170.395 56.03V60.77C170.395 60.8367 170.375 60.8933 170.335 60.94C170.295 60.98 170.238 61 170.165 61H169.705C169.638 61 169.582 60.98 169.535 60.94C169.495 60.8933 169.475 60.8367 169.475 60.77V60.33C169.295 60.5633 169.075 60.75 168.815 60.89C168.562 61.03 168.225 61.1 167.805 61.1ZM37.97 73C37.9033 73 37.8467 72.98 37.8 72.94C37.76 72.8933 37.74 72.8367 37.74 72.77V68.03C37.74 67.9633 37.76 67.91 37.8 67.87C37.8467 67.8233 37.9033 67.8 37.97 67.8H38.42C38.4867 67.8 38.54 67.8233 38.58 67.87C38.6267 67.91 38.65 67.9633 38.65 68.03V68.38C38.8033 68.1733 38.9967 68.01 39.23 67.89C39.4633 67.7633 39.7433 67.7 40.07 67.7C40.8233 67.6933 41.3567 68 41.67 68.62C41.8233 68.34 42.0467 68.1167 42.34 67.95C42.6333 67.7833 42.9667 67.7 43.34 67.7C43.6867 67.7 44 67.78 44.28 67.94C44.5667 68.1 44.79 68.3433 44.95 68.67C45.1167 68.99 45.2 69.3933 45.2 69.88V72.77C45.2 72.8367 45.1767 72.8933 45.13 72.94C45.09 72.98 45.0367 73 44.97 73H44.5C44.4333 73 44.3767 72.98 44.33 72.94C44.29 72.8933 44.27 72.8367 44.27 72.77V69.97C44.27 69.5967 44.2167 69.3033 44.11 69.09C44.0033 68.8767 43.86 68.7267 43.68 68.64C43.5 68.5533 43.3033 68.51 43.09 68.51C42.9167 68.51 42.74 68.5533 42.56 68.64C42.38 68.7267 42.23 68.8767 42.11 69.09C41.9967 69.3033 41.94 69.5967 41.94 69.97V72.77C41.94 72.8367 41.9167 72.8933 41.87 72.94C41.83 72.98 41.7767 73 41.71 73H41.24C41.1733 73 41.1167 72.98 41.07 72.94C41.03 72.8933 41.01 72.8367 41.01 72.77V69.97C41.01 69.5967 40.9533 69.3033 40.84 69.09C40.7267 68.8767 40.58 68.7267 40.4 68.64C40.22 68.5533 40.03 68.51 39.83 68.51C39.6567 68.51 39.48 68.5533 39.3 68.64C39.12 68.7267 38.97 68.8767 38.85 69.09C38.7367 69.3033 38.68 69.5933 38.68 69.96V72.77C38.68 72.8367 38.6567 72.8933 38.61 72.94C38.57 72.98 38.5167 73 38.45 73H37.97ZM46.8567 73C46.7901 73 46.7334 72.98 46.6867 72.94C46.6467 72.8933 46.6267 72.8367 46.6267 72.77V68.03C46.6267 67.9633 46.6467 67.91 46.6867 67.87C46.7334 67.8233 46.7901 67.8 46.8567 67.8H47.3367C47.4034 67.8 47.4567 67.8233 47.4967 67.87C47.5367 67.91 47.5567 67.9633 47.5567 68.03V72.77C47.5567 72.8367 47.5367 72.8933 47.4967 72.94C47.4567 72.98 47.4034 73 47.3367 73H46.8567ZM46.7767 66.83C46.7101 66.83 46.6534 66.81 46.6067 66.77C46.5667 66.7233 46.5467 66.6667 46.5467 66.6V66.06C46.5467 65.9933 46.5667 65.94 46.6067 65.9C46.6534 65.8533 46.7101 65.83 46.7767 65.83H47.4067C47.4734 65.83 47.5267 65.8533 47.5667 65.9C47.6134 65.94 47.6367 65.9933 47.6367 66.06V66.6C47.6367 66.6667 47.6134 66.7233 47.5667 66.77C47.5267 66.81 47.4734 66.83 47.4067 66.83H46.7767ZM49.3763 73C49.3096 73 49.2529 72.98 49.2063 72.94C49.1663 72.8933 49.1463 72.8367 49.1463 72.77V68.03C49.1463 67.9633 49.1663 67.91 49.2063 67.87C49.2529 67.8233 49.3096 67.8 49.3763 67.8H49.8463C49.9129 67.8 49.9663 67.8233 50.0063 67.87C50.0529 67.91 50.0763 67.9633 50.0763 68.03V68.47C50.2496 68.2433 50.4663 68.06 50.7263 67.92C50.9929 67.7733 51.3329 67.7 51.7463 67.7C52.1796 67.7 52.5463 67.7967 52.8463 67.99C53.1529 68.1767 53.3829 68.44 53.5363 68.78C53.6896 69.1133 53.7663 69.5033 53.7663 69.95V72.77C53.7663 72.8367 53.7463 72.8933 53.7063 72.94C53.6663 72.98 53.6129 73 53.5462 73H53.0463C52.9796 73 52.9229 72.98 52.8763 72.94C52.8363 72.8933 52.8163 72.8367 52.8163 72.77V70C52.8163 69.5333 52.7029 69.17 52.4763 68.91C52.2496 68.6433 51.9163 68.51 51.4763 68.51C51.0629 68.51 50.7296 68.6433 50.4763 68.91C50.2296 69.17 50.1063 69.5333 50.1063 70V72.77C50.1063 72.8367 50.0829 72.8933 50.0363 72.94C49.9963 72.98 49.9429 73 49.8762 73H49.3763ZM55.4507 73C55.384 73 55.3274 72.98 55.2807 72.94C55.2407 72.8933 55.2207 72.8367 55.2207 72.77V66.13C55.2207 66.0633 55.2407 66.01 55.2807 65.97C55.3274 65.9233 55.384 65.9 55.4507 65.9H55.9507C56.024 65.9 56.0807 65.9233 56.1207 65.97C56.1607 66.01 56.1807 66.0633 56.1807 66.13V68.46C56.3607 68.2333 56.5807 68.05 56.8407 67.91C57.1007 67.77 57.4307 67.7 57.8307 67.7C58.264 67.7 58.6307 67.7967 58.9307 67.99C59.2374 68.1767 59.4674 68.44 59.6207 68.78C59.7807 69.1133 59.8607 69.5033 59.8607 69.95V72.77C59.8607 72.8367 59.8407 72.8933 59.8007 72.94C59.7607 72.98 59.704 73 59.6307 73H59.1307C59.064 73 59.0074 72.98 58.9607 72.94C58.9207 72.8933 58.9007 72.8367 58.9007 72.77V70C58.9007 69.5333 58.7874 69.17 58.5607 68.91C58.334 68.6433 58.0007 68.51 57.5607 68.51C57.1474 68.51 56.814 68.6433 56.5607 68.91C56.3074 69.17 56.1807 69.5333 56.1807 70V72.77C56.1807 72.8367 56.1607 72.8933 56.1207 72.94C56.0807 72.98 56.024 73 55.9507 73H55.4507ZM62.7545 73.1C62.4211 73.1 62.1178 73.0333 61.8445 72.9C61.5711 72.7667 61.3511 72.5867 61.1845 72.36C61.0178 72.1333 60.9345 71.8767 60.9345 71.59C60.9345 71.13 61.1211 70.7633 61.4945 70.49C61.8678 70.2167 62.3545 70.0367 62.9545 69.95L64.4445 69.74V69.45C64.4445 69.13 64.3511 68.88 64.1645 68.7C63.9845 68.52 63.6878 68.43 63.2745 68.43C62.9745 68.43 62.7311 68.49 62.5445 68.61C62.3645 68.73 62.2378 68.8833 62.1645 69.07C62.1245 69.17 62.0545 69.22 61.9545 69.22H61.5045C61.4311 69.22 61.3745 69.2 61.3345 69.16C61.3011 69.1133 61.2845 69.06 61.2845 69C61.2845 68.9 61.3211 68.7767 61.3945 68.63C61.4745 68.4833 61.5945 68.34 61.7545 68.2C61.9145 68.06 62.1178 67.9433 62.3645 67.85C62.6178 67.75 62.9245 67.7 63.2845 67.7C63.6845 67.7 64.0211 67.7533 64.2945 67.86C64.5678 67.96 64.7811 68.0967 64.9345 68.27C65.0945 68.4433 65.2078 68.64 65.2745 68.86C65.3478 69.08 65.3845 69.3033 65.3845 69.53V72.77C65.3845 72.8367 65.3611 72.8933 65.3145 72.94C65.2745 72.98 65.2211 73 65.1545 73H64.6945C64.6211 73 64.5645 72.98 64.5245 72.94C64.4845 72.8933 64.4645 72.8367 64.4645 72.77V72.34C64.3778 72.46 64.2611 72.58 64.1145 72.7C63.9678 72.8133 63.7845 72.91 63.5645 72.99C63.3445 73.0633 63.0745 73.1 62.7545 73.1ZM62.9645 72.35C63.2378 72.35 63.4878 72.2933 63.7145 72.18C63.9411 72.06 64.1178 71.8767 64.2445 71.63C64.3778 71.3833 64.4445 71.0733 64.4445 70.7V70.42L63.2845 70.59C62.8111 70.6567 62.4545 70.77 62.2145 70.93C61.9745 71.0833 61.8545 71.28 61.8545 71.52C61.8545 71.7067 61.9078 71.8633 62.0145 71.99C62.1278 72.11 62.2678 72.2 62.4345 72.26C62.6078 72.32 62.7845 72.35 62.9645 72.35ZM68.622 73.1C68.2487 73.1 67.9287 73.0533 67.662 72.96C67.3954 72.8667 67.1787 72.7533 67.012 72.62C66.8454 72.4867 66.7187 72.3533 66.632 72.22C66.552 72.0867 66.5087 71.98 66.502 71.9C66.4954 71.8267 66.5187 71.77 66.572 71.73C66.6254 71.69 66.6787 71.67 66.732 71.67H67.172C67.212 71.67 67.242 71.6767 67.262 71.69C67.2887 71.6967 67.322 71.7233 67.362 71.77C67.4487 71.8633 67.5454 71.9567 67.652 72.05C67.7587 72.1433 67.8887 72.22 68.042 72.28C68.202 72.34 68.3987 72.37 68.632 72.37C68.972 72.37 69.252 72.3067 69.472 72.18C69.692 72.0467 69.802 71.8533 69.802 71.6C69.802 71.4333 69.7554 71.3 69.662 71.2C69.5754 71.1 69.4154 71.01 69.182 70.93C68.9554 70.85 68.642 70.7667 68.242 70.68C67.842 70.5867 67.5254 70.4733 67.292 70.34C67.0587 70.2 66.892 70.0367 66.792 69.85C66.692 69.6567 66.642 69.44 66.642 69.2C66.642 68.9533 66.7154 68.7167 66.862 68.49C67.0087 68.2567 67.222 68.0667 67.502 67.92C67.7887 67.7733 68.1454 67.7 68.572 67.7C68.9187 67.7 69.2154 67.7433 69.462 67.83C69.7087 67.9167 69.912 68.0267 70.072 68.16C70.232 68.2867 70.352 68.4133 70.432 68.54C70.512 68.6667 70.5554 68.7733 70.562 68.86C70.5687 68.9267 70.5487 68.9833 70.502 69.03C70.4554 69.07 70.402 69.09 70.342 69.09H69.922C69.8754 69.09 69.8354 69.08 69.802 69.06C69.7754 69.04 69.7487 69.0167 69.722 68.99C69.6554 68.9033 69.5754 68.8167 69.482 68.73C69.3954 68.6433 69.2787 68.5733 69.132 68.52C68.992 68.46 68.8054 68.43 68.572 68.43C68.2387 68.43 67.9887 68.5 67.822 68.64C67.6554 68.78 67.572 68.9567 67.572 69.17C67.572 69.2967 67.6087 69.41 67.682 69.51C67.7554 69.61 67.8954 69.7 68.102 69.78C68.3087 69.86 68.6154 69.9467 69.022 70.04C69.462 70.1267 69.8087 70.2433 70.062 70.39C70.3154 70.5367 70.4954 70.7067 70.602 70.9C70.7087 71.0933 70.762 71.3167 70.762 71.57C70.762 71.85 70.6787 72.1067 70.512 72.34C70.352 72.5733 70.112 72.76 69.792 72.9C69.4787 73.0333 69.0887 73.1 68.622 73.1ZM76.4409 73.1C75.7542 73.1 75.2075 72.89 74.8009 72.47C74.3942 72.0433 74.1709 71.4633 74.1309 70.73C74.1242 70.6433 74.1209 70.5333 74.1209 70.4C74.1209 70.26 74.1242 70.1467 74.1309 70.06C74.1575 69.5867 74.2675 69.1733 74.4609 68.82C74.6542 68.46 74.9175 68.1833 75.2509 67.99C75.5909 67.7967 75.9875 67.7 76.4409 67.7C76.9475 67.7 77.3709 67.8067 77.7109 68.02C78.0575 68.2333 78.3209 68.5367 78.5009 68.93C78.6809 69.3233 78.7709 69.7833 78.7709 70.31V70.48C78.7709 70.5533 78.7475 70.61 78.7009 70.65C78.6609 70.69 78.6075 70.71 78.5409 70.71H75.0809C75.0809 70.7167 75.0809 70.73 75.0809 70.75C75.0809 70.77 75.0809 70.7867 75.0809 70.8C75.0942 71.0733 75.1542 71.33 75.2609 71.57C75.3675 71.8033 75.5209 71.9933 75.7209 72.14C75.9209 72.2867 76.1609 72.36 76.4409 72.36C76.6809 72.36 76.8809 72.3233 77.0409 72.25C77.2009 72.1767 77.3309 72.0967 77.4309 72.01C77.5309 71.9167 77.5975 71.8467 77.6309 71.8C77.6909 71.7133 77.7375 71.6633 77.7709 71.65C77.8042 71.63 77.8575 71.62 77.9309 71.62H78.4109C78.4775 71.62 78.5309 71.64 78.5709 71.68C78.6175 71.7133 78.6375 71.7633 78.6309 71.83C78.6242 71.93 78.5709 72.0533 78.4709 72.2C78.3709 72.34 78.2275 72.48 78.0409 72.62C77.8542 72.76 77.6275 72.8767 77.3609 72.97C77.0942 73.0567 76.7875 73.1 76.4409 73.1ZM75.0809 70.02H77.8209V69.99C77.8209 69.69 77.7642 69.4233 77.6509 69.19C77.5442 68.9567 77.3875 68.7733 77.1809 68.64C76.9742 68.5 76.7275 68.43 76.4409 68.43C76.1542 68.43 75.9075 68.5 75.7009 68.64C75.5009 68.7733 75.3475 68.9567 75.2409 69.19C75.1342 69.4233 75.0809 69.69 75.0809 69.99V70.02ZM79.6191 73C79.5658 73 79.5158 72.98 79.4691 72.94C79.4291 72.9 79.4091 72.85 79.4091 72.79C79.4091 72.77 79.4125 72.7467 79.4191 72.72C79.4325 72.6867 79.4525 72.65 79.4791 72.61L81.2191 70.34L79.5891 68.19C79.5625 68.15 79.5425 68.1167 79.5291 68.09C79.5225 68.0633 79.5191 68.0367 79.5191 68.01C79.5191 67.95 79.5391 67.9 79.5791 67.86C79.6191 67.82 79.6691 67.8 79.7291 67.8H80.2391C80.3125 67.8 80.3658 67.82 80.3991 67.86C80.4391 67.8933 80.4725 67.9267 80.4991 67.96L81.8291 69.69L83.1591 67.97C83.1858 67.9367 83.2158 67.9 83.2491 67.86C83.2891 67.82 83.3458 67.8 83.4191 67.8H83.9091C83.9691 67.8 84.0191 67.82 84.0591 67.86C84.0991 67.9 84.1191 67.95 84.1191 68.01C84.1191 68.0367 84.1125 68.0633 84.0991 68.09C84.0925 68.1167 84.0758 68.15 84.0491 68.19L82.3991 70.36L84.1391 72.61C84.1658 72.65 84.1825 72.6833 84.1891 72.71C84.2025 72.7367 84.2091 72.7633 84.2091 72.79C84.2091 72.85 84.1891 72.9 84.1491 72.94C84.1091 72.98 84.0591 73 83.9991 73H83.4691C83.4025 73 83.3491 72.9833 83.3091 72.95C83.2691 72.9167 83.2358 72.8833 83.2091 72.85L81.7991 71.02L80.3891 72.85C80.3625 72.8767 80.3291 72.91 80.2891 72.95C80.2558 72.9833 80.2025 73 80.1291 73H79.6191ZM85.4898 74.9C85.4231 74.9 85.3664 74.8767 85.3198 74.83C85.2798 74.79 85.2598 74.7367 85.2598 74.67V68.03C85.2598 67.9633 85.2798 67.91 85.3198 67.87C85.3664 67.8233 85.4231 67.8 85.4898 67.8H85.9498C86.0164 67.8 86.0698 67.8233 86.1098 67.87C86.1564 67.91 86.1798 67.9633 86.1798 68.03V68.47C86.3398 68.25 86.5531 68.0667 86.8198 67.92C87.0864 67.7733 87.4198 67.7 87.8198 67.7C88.1931 67.7 88.5098 67.7633 88.7698 67.89C89.0364 68.0167 89.2531 68.19 89.4198 68.41C89.5931 68.63 89.7231 68.88 89.8098 69.16C89.8964 69.44 89.9431 69.74 89.9498 70.06C89.9564 70.1667 89.9598 70.28 89.9598 70.4C89.9598 70.52 89.9564 70.6333 89.9498 70.74C89.9431 71.0533 89.8964 71.3533 89.8098 71.64C89.7231 71.92 89.5931 72.17 89.4198 72.39C89.2531 72.6033 89.0364 72.7767 88.7698 72.91C88.5098 73.0367 88.1931 73.1 87.8198 73.1C87.4331 73.1 87.1064 73.03 86.8398 72.89C86.5798 72.7433 86.3664 72.5633 86.1998 72.35V74.67C86.1998 74.7367 86.1798 74.79 86.1398 74.83C86.0998 74.8767 86.0431 74.9 85.9698 74.9H85.4898ZM87.6098 72.29C87.9564 72.29 88.2264 72.2167 88.4198 72.07C88.6198 71.9167 88.7631 71.72 88.8498 71.48C88.9364 71.2333 88.9864 70.97 88.9998 70.69C89.0064 70.4967 89.0064 70.3033 88.9998 70.11C88.9864 69.83 88.9364 69.57 88.8498 69.33C88.7631 69.0833 88.6198 68.8867 88.4198 68.74C88.2264 68.5867 87.9564 68.51 87.6098 68.51C87.2831 68.51 87.0164 68.5867 86.8098 68.74C86.6098 68.8933 86.4598 69.09 86.3598 69.33C86.2664 69.5633 86.2131 69.8033 86.1998 70.05C86.1931 70.1567 86.1898 70.2833 86.1898 70.43C86.1898 70.5767 86.1931 70.7067 86.1998 70.82C86.2064 71.0533 86.2598 71.2833 86.3598 71.51C86.4664 71.7367 86.6231 71.9233 86.8298 72.07C87.0364 72.2167 87.2964 72.29 87.6098 72.29ZM93.2768 73.1C92.5901 73.1 92.0435 72.89 91.6368 72.47C91.2301 72.0433 91.0068 71.4633 90.9668 70.73C90.9601 70.6433 90.9568 70.5333 90.9568 70.4C90.9568 70.26 90.9601 70.1467 90.9668 70.06C90.9935 69.5867 91.1035 69.1733 91.2968 68.82C91.4901 68.46 91.7535 68.1833 92.0868 67.99C92.4268 67.7967 92.8235 67.7 93.2768 67.7C93.7835 67.7 94.2068 67.8067 94.5468 68.02C94.8935 68.2333 95.1568 68.5367 95.3368 68.93C95.5168 69.3233 95.6068 69.7833 95.6068 70.31V70.48C95.6068 70.5533 95.5835 70.61 95.5368 70.65C95.4968 70.69 95.4435 70.71 95.3768 70.71H91.9168C91.9168 70.7167 91.9168 70.73 91.9168 70.75C91.9168 70.77 91.9168 70.7867 91.9168 70.8C91.9301 71.0733 91.9901 71.33 92.0968 71.57C92.2035 71.8033 92.3568 71.9933 92.5568 72.14C92.7568 72.2867 92.9968 72.36 93.2768 72.36C93.5168 72.36 93.7168 72.3233 93.8768 72.25C94.0368 72.1767 94.1668 72.0967 94.2668 72.01C94.3668 71.9167 94.4335 71.8467 94.4668 71.8C94.5268 71.7133 94.5735 71.6633 94.6068 71.65C94.6401 71.63 94.6935 71.62 94.7668 71.62H95.2468C95.3135 71.62 95.3668 71.64 95.4068 71.68C95.4535 71.7133 95.4735 71.7633 95.4668 71.83C95.4601 71.93 95.4068 72.0533 95.3068 72.2C95.2068 72.34 95.0635 72.48 94.8768 72.62C94.6901 72.76 94.4635 72.8767 94.1968 72.97C93.9301 73.0567 93.6235 73.1 93.2768 73.1ZM91.9168 70.02H94.6568V69.99C94.6568 69.69 94.6001 69.4233 94.4868 69.19C94.3801 68.9567 94.2235 68.7733 94.0168 68.64C93.8101 68.5 93.5635 68.43 93.2768 68.43C92.9901 68.43 92.7435 68.5 92.5368 68.64C92.3368 68.7733 92.1835 68.9567 92.0768 69.19C91.9701 69.4233 91.9168 69.69 91.9168 69.99V70.02ZM98.9025 73.1C98.4292 73.1 98.0192 73.01 97.6725 72.83C97.3325 72.6433 97.0692 72.38 96.8825 72.04C96.6958 71.6933 96.5958 71.28 96.5825 70.8C96.5758 70.7 96.5725 70.5667 96.5725 70.4C96.5725 70.2333 96.5758 70.1 96.5825 70C96.5958 69.52 96.6958 69.11 96.8825 68.77C97.0692 68.4233 97.3325 68.16 97.6725 67.98C98.0192 67.7933 98.4292 67.7 98.9025 67.7C99.2892 67.7 99.6192 67.7533 99.8925 67.86C100.173 67.9667 100.403 68.1033 100.583 68.27C100.763 68.4367 100.896 68.6167 100.983 68.81C101.076 69.0033 101.126 69.1867 101.133 69.36C101.139 69.4267 101.119 69.48 101.073 69.52C101.026 69.56 100.969 69.58 100.903 69.58H100.423C100.356 69.58 100.306 69.5667 100.273 69.54C100.239 69.5067 100.206 69.4533 100.173 69.38C100.053 69.0533 99.8892 68.8233 99.6825 68.69C99.4758 68.5567 99.2192 68.49 98.9125 68.49C98.5125 68.49 98.1858 68.6133 97.9325 68.86C97.6858 69.1067 97.5525 69.5033 97.5325 70.05C97.5258 70.29 97.5258 70.5233 97.5325 70.75C97.5525 71.3033 97.6858 71.7033 97.9325 71.95C98.1858 72.19 98.5125 72.31 98.9125 72.31C99.2192 72.31 99.4758 72.2433 99.6825 72.11C99.8892 71.9767 100.053 71.7467 100.173 71.42C100.206 71.3467 100.239 71.2967 100.273 71.27C100.306 71.2367 100.356 71.22 100.423 71.22H100.903C100.969 71.22 101.026 71.24 101.073 71.28C101.119 71.32 101.139 71.3733 101.133 71.44C101.126 71.58 101.096 71.7233 101.043 71.87C100.989 72.0167 100.903 72.1667 100.783 72.32C100.669 72.4667 100.526 72.6 100.353 72.72C100.179 72.8333 99.9692 72.9267 99.7225 73C99.4825 73.0667 99.2092 73.1 98.9025 73.1ZM104.35 73C103.977 73 103.673 72.93 103.44 72.79C103.207 72.6433 103.037 72.44 102.93 72.18C102.823 71.9133 102.77 71.6 102.77 71.24V68.6H101.99C101.923 68.6 101.867 68.58 101.82 68.54C101.78 68.4933 101.76 68.4367 101.76 68.37V68.03C101.76 67.9633 101.78 67.91 101.82 67.87C101.867 67.8233 101.923 67.8 101.99 67.8H102.77V66.13C102.77 66.0633 102.79 66.01 102.83 65.97C102.877 65.9233 102.933 65.9 103 65.9H103.47C103.537 65.9 103.59 65.9233 103.63 65.97C103.677 66.01 103.7 66.0633 103.7 66.13V67.8H104.94C105.007 67.8 105.06 67.8233 105.1 67.87C105.147 67.91 105.17 67.9633 105.17 68.03V68.37C105.17 68.4367 105.147 68.4933 105.1 68.54C105.06 68.58 105.007 68.6 104.94 68.6H103.7V71.17C103.7 71.4833 103.753 71.73 103.86 71.91C103.967 72.09 104.157 72.18 104.43 72.18H105.04C105.107 72.18 105.16 72.2033 105.2 72.25C105.247 72.29 105.27 72.3433 105.27 72.41V72.77C105.27 72.8367 105.247 72.8933 105.2 72.94C105.16 72.98 105.107 73 105.04 73H104.35ZM107.676 73.1C107.343 73.1 107.04 73.0333 106.766 72.9C106.493 72.7667 106.273 72.5867 106.106 72.36C105.94 72.1333 105.856 71.8767 105.856 71.59C105.856 71.13 106.043 70.7633 106.416 70.49C106.79 70.2167 107.276 70.0367 107.876 69.95L109.366 69.74V69.45C109.366 69.13 109.273 68.88 109.086 68.7C108.906 68.52 108.61 68.43 108.196 68.43C107.896 68.43 107.653 68.49 107.466 68.61C107.286 68.73 107.16 68.8833 107.086 69.07C107.046 69.17 106.976 69.22 106.876 69.22H106.426C106.353 69.22 106.296 69.2 106.256 69.16C106.223 69.1133 106.206 69.06 106.206 69C106.206 68.9 106.243 68.7767 106.316 68.63C106.396 68.4833 106.516 68.34 106.676 68.2C106.836 68.06 107.04 67.9433 107.286 67.85C107.54 67.75 107.846 67.7 108.206 67.7C108.606 67.7 108.943 67.7533 109.216 67.86C109.49 67.96 109.703 68.0967 109.856 68.27C110.016 68.4433 110.13 68.64 110.196 68.86C110.27 69.08 110.306 69.3033 110.306 69.53V72.77C110.306 72.8367 110.283 72.8933 110.236 72.94C110.196 72.98 110.143 73 110.076 73H109.616C109.543 73 109.486 72.98 109.446 72.94C109.406 72.8933 109.386 72.8367 109.386 72.77V72.34C109.3 72.46 109.183 72.58 109.036 72.7C108.89 72.8133 108.706 72.91 108.486 72.99C108.266 73.0633 107.996 73.1 107.676 73.1ZM107.886 72.35C108.16 72.35 108.41 72.2933 108.636 72.18C108.863 72.06 109.04 71.8767 109.166 71.63C109.3 71.3833 109.366 71.0733 109.366 70.7V70.42L108.206 70.59C107.733 70.6567 107.376 70.77 107.136 70.93C106.896 71.0833 106.776 71.28 106.776 71.52C106.776 71.7067 106.83 71.8633 106.936 71.99C107.05 72.11 107.19 72.2 107.356 72.26C107.53 72.32 107.706 72.35 107.886 72.35ZM113.725 73C113.352 73 113.048 72.93 112.815 72.79C112.582 72.6433 112.412 72.44 112.305 72.18C112.198 71.9133 112.145 71.6 112.145 71.24V68.6H111.365C111.298 68.6 111.242 68.58 111.195 68.54C111.155 68.4933 111.135 68.4367 111.135 68.37V68.03C111.135 67.9633 111.155 67.91 111.195 67.87C111.242 67.8233 111.298 67.8 111.365 67.8H112.145V66.13C112.145 66.0633 112.165 66.01 112.205 65.97C112.252 65.9233 112.308 65.9 112.375 65.9H112.845C112.912 65.9 112.965 65.9233 113.005 65.97C113.052 66.01 113.075 66.0633 113.075 66.13V67.8H114.315C114.382 67.8 114.435 67.8233 114.475 67.87C114.522 67.91 114.545 67.9633 114.545 68.03V68.37C114.545 68.4367 114.522 68.4933 114.475 68.54C114.435 68.58 114.382 68.6 114.315 68.6H113.075V71.17C113.075 71.4833 113.128 71.73 113.235 71.91C113.342 72.09 113.532 72.18 113.805 72.18H114.415C114.482 72.18 114.535 72.2033 114.575 72.25C114.622 72.29 114.645 72.3433 114.645 72.41V72.77C114.645 72.8367 114.622 72.8933 114.575 72.94C114.535 72.98 114.482 73 114.415 73H113.725ZM115.831 73C115.765 73 115.708 72.98 115.661 72.94C115.621 72.8933 115.601 72.8367 115.601 72.77V68.03C115.601 67.9633 115.621 67.91 115.661 67.87C115.708 67.8233 115.765 67.8 115.831 67.8H116.311C116.378 67.8 116.431 67.8233 116.471 67.87C116.511 67.91 116.531 67.9633 116.531 68.03V72.77C116.531 72.8367 116.511 72.8933 116.471 72.94C116.431 72.98 116.378 73 116.311 73H115.831ZM115.751 66.83C115.685 66.83 115.628 66.81 115.581 66.77C115.541 66.7233 115.521 66.6667 115.521 66.6V66.06C115.521 65.9933 115.541 65.94 115.581 65.9C115.628 65.8533 115.685 65.83 115.751 65.83H116.381C116.448 65.83 116.501 65.8533 116.541 65.9C116.588 65.94 116.611 65.9933 116.611 66.06V66.6C116.611 66.6667 116.588 66.7233 116.541 66.77C116.501 66.81 116.448 66.83 116.381 66.83H115.751ZM119.833 73C119.733 73 119.653 72.9767 119.593 72.93C119.54 72.8833 119.497 72.8233 119.463 72.75L117.613 68.11C117.6 68.0767 117.593 68.0433 117.593 68.01C117.593 67.95 117.613 67.9 117.653 67.86C117.693 67.82 117.743 67.8 117.803 67.8H118.283C118.357 67.8 118.413 67.82 118.453 67.86C118.493 67.9 118.517 67.9367 118.523 67.97L120.053 71.91L121.573 67.97C121.587 67.9367 121.61 67.9 121.643 67.86C121.683 67.82 121.74 67.8 121.813 67.8H122.303C122.357 67.8 122.403 67.82 122.443 67.86C122.49 67.9 122.513 67.95 122.513 68.01C122.513 68.0433 122.507 68.0767 122.493 68.11L120.633 72.75C120.607 72.8233 120.563 72.8833 120.503 72.93C120.45 72.9767 120.37 73 120.263 73H119.833ZM124.815 73.1C124.482 73.1 124.178 73.0333 123.905 72.9C123.632 72.7667 123.412 72.5867 123.245 72.36C123.078 72.1333 122.995 71.8767 122.995 71.59C122.995 71.13 123.182 70.7633 123.555 70.49C123.928 70.2167 124.415 70.0367 125.015 69.95L126.505 69.74V69.45C126.505 69.13 126.412 68.88 126.225 68.7C126.045 68.52 125.748 68.43 125.335 68.43C125.035 68.43 124.792 68.49 124.605 68.61C124.425 68.73 124.298 68.8833 124.225 69.07C124.185 69.17 124.115 69.22 124.015 69.22H123.565C123.492 69.22 123.435 69.2 123.395 69.16C123.362 69.1133 123.345 69.06 123.345 69C123.345 68.9 123.382 68.7767 123.455 68.63C123.535 68.4833 123.655 68.34 123.815 68.2C123.975 68.06 124.178 67.9433 124.425 67.85C124.678 67.75 124.985 67.7 125.345 67.7C125.745 67.7 126.082 67.7533 126.355 67.86C126.628 67.96 126.842 68.0967 126.995 68.27C127.155 68.4433 127.268 68.64 127.335 68.86C127.408 69.08 127.445 69.3033 127.445 69.53V72.77C127.445 72.8367 127.422 72.8933 127.375 72.94C127.335 72.98 127.282 73 127.215 73H126.755C126.682 73 126.625 72.98 126.585 72.94C126.545 72.8933 126.525 72.8367 126.525 72.77V72.34C126.438 72.46 126.322 72.58 126.175 72.7C126.028 72.8133 125.845 72.91 125.625 72.99C125.405 73.0633 125.135 73.1 124.815 73.1ZM125.025 72.35C125.298 72.35 125.548 72.2933 125.775 72.18C126.002 72.06 126.178 71.8767 126.305 71.63C126.438 71.3833 126.505 71.0733 126.505 70.7V70.42L125.345 70.59C124.872 70.6567 124.515 70.77 124.275 70.93C124.035 71.0833 123.915 71.28 123.915 71.52C123.915 71.7067 123.968 71.8633 124.075 71.99C124.188 72.11 124.328 72.2 124.495 72.26C124.668 72.32 124.845 72.35 125.025 72.35ZM130.683 73.1C130.309 73.1 129.989 73.0533 129.723 72.96C129.456 72.8667 129.239 72.7533 129.073 72.62C128.906 72.4867 128.779 72.3533 128.693 72.22C128.613 72.0867 128.569 71.98 128.563 71.9C128.556 71.8267 128.579 71.77 128.633 71.73C128.686 71.69 128.739 71.67 128.793 71.67H129.233C129.273 71.67 129.303 71.6767 129.323 71.69C129.349 71.6967 129.383 71.7233 129.423 71.77C129.509 71.8633 129.606 71.9567 129.713 72.05C129.819 72.1433 129.949 72.22 130.103 72.28C130.263 72.34 130.459 72.37 130.693 72.37C131.033 72.37 131.313 72.3067 131.533 72.18C131.753 72.0467 131.863 71.8533 131.863 71.6C131.863 71.4333 131.816 71.3 131.723 71.2C131.636 71.1 131.476 71.01 131.243 70.93C131.016 70.85 130.703 70.7667 130.303 70.68C129.903 70.5867 129.586 70.4733 129.353 70.34C129.119 70.2 128.953 70.0367 128.853 69.85C128.753 69.6567 128.703 69.44 128.703 69.2C128.703 68.9533 128.776 68.7167 128.923 68.49C129.069 68.2567 129.283 68.0667 129.563 67.92C129.849 67.7733 130.206 67.7 130.633 67.7C130.979 67.7 131.276 67.7433 131.523 67.83C131.769 67.9167 131.973 68.0267 132.133 68.16C132.293 68.2867 132.413 68.4133 132.493 68.54C132.573 68.6667 132.616 68.7733 132.623 68.86C132.629 68.9267 132.609 68.9833 132.563 69.03C132.516 69.07 132.463 69.09 132.403 69.09H131.983C131.936 69.09 131.896 69.08 131.863 69.06C131.836 69.04 131.809 69.0167 131.783 68.99C131.716 68.9033 131.636 68.8167 131.543 68.73C131.456 68.6433 131.339 68.5733 131.193 68.52C131.053 68.46 130.866 68.43 130.633 68.43C130.299 68.43 130.049 68.5 129.883 68.64C129.716 68.78 129.633 68.9567 129.633 69.17C129.633 69.2967 129.669 69.41 129.743 69.51C129.816 69.61 129.956 69.7 130.163 69.78C130.369 69.86 130.676 69.9467 131.083 70.04C131.523 70.1267 131.869 70.2433 132.123 70.39C132.376 70.5367 132.556 70.7067 132.663 70.9C132.769 71.0933 132.823 71.3167 132.823 71.57C132.823 71.85 132.739 72.1067 132.573 72.34C132.413 72.5733 132.173 72.76 131.853 72.9C131.539 73.0333 131.149 73.1 130.683 73.1ZM134.23 71.34C134.164 71.34 134.107 71.32 134.06 71.28C134.02 71.2333 134 71.1767 134 71.11V66.23C134 66.1633 134.02 66.11 134.06 66.07C134.107 66.0233 134.164 66 134.23 66H134.7C134.767 66 134.82 66.0233 134.86 66.07C134.9 66.11 134.92 66.1633 134.92 66.23V71.11C134.92 71.1767 134.9 71.2333 134.86 71.28C134.82 71.32 134.767 71.34 134.7 71.34H134.23ZM134.14 73C134.074 73 134.017 72.98 133.97 72.94C133.93 72.8933 133.91 72.8367 133.91 72.77V72.14C133.91 72.0667 133.93 72.01 133.97 71.97C134.017 71.9233 134.074 71.9 134.14 71.9H134.78C134.847 71.9 134.9 71.9233 134.94 71.97C134.987 72.01 135.01 72.0667 135.01 72.14V72.77C135.01 72.8367 134.987 72.8933 134.94 72.94C134.9 72.98 134.847 73 134.78 73H134.14Z" fill="#5E5E5E"/>
<path d="M40.744 42C40.52 42 40.336 41.932 40.192 41.796C40.048 41.652 39.976 41.476 39.976 41.268V34.308H41.536V41.268C41.536 41.476 41.46 41.652 41.308 41.796C41.164 41.932 40.976 42 40.744 42ZM38.092 34.98C37.884 34.98 37.708 34.916 37.564 34.788C37.428 34.66 37.36 34.492 37.36 34.284C37.36 34.076 37.428 33.912 37.564 33.792C37.708 33.664 37.884 33.6 38.092 33.6H43.42C43.628 33.6 43.8 33.664 43.936 33.792C44.08 33.92 44.152 34.088 44.152 34.296C44.152 34.504 44.08 34.672 43.936 34.8C43.8 34.92 43.628 34.98 43.42 34.98H38.092ZM49.3524 35.46C49.5604 35.46 49.7324 35.528 49.8684 35.664C50.0044 35.8 50.0724 35.976 50.0724 36.192V41.268C50.0724 41.476 50.0044 41.652 49.8684 41.796C49.7324 41.932 49.5604 42 49.3524 42C49.1444 42 48.9724 41.932 48.8364 41.796C48.7004 41.652 48.6324 41.476 48.6324 41.268V40.68L48.8964 40.788C48.8964 40.892 48.8404 41.02 48.7284 41.172C48.6164 41.316 48.4644 41.46 48.2724 41.604C48.0804 41.748 47.8524 41.872 47.5884 41.976C47.3324 42.072 47.0524 42.12 46.7484 42.12C46.1964 42.12 45.6964 41.98 45.2484 41.7C44.8004 41.412 44.4444 41.02 44.1804 40.524C43.9244 40.02 43.7964 39.444 43.7964 38.796C43.7964 38.14 43.9244 37.564 44.1804 37.068C44.4444 36.564 44.7964 36.172 45.2364 35.892C45.6764 35.604 46.1644 35.46 46.7004 35.46C47.0444 35.46 47.3604 35.512 47.6484 35.616C47.9364 35.72 48.1844 35.852 48.3924 36.012C48.6084 36.172 48.7724 36.336 48.8844 36.504C49.0044 36.664 49.0644 36.8 49.0644 36.912L48.6324 37.068V36.192C48.6324 35.984 48.7004 35.812 48.8364 35.676C48.9724 35.532 49.1444 35.46 49.3524 35.46ZM46.9284 40.8C47.2804 40.8 47.5884 40.712 47.8524 40.536C48.1164 40.36 48.3204 40.12 48.4644 39.816C48.6164 39.512 48.6924 39.172 48.6924 38.796C48.6924 38.412 48.6164 38.068 48.4644 37.764C48.3204 37.46 48.1164 37.22 47.8524 37.044C47.5884 36.868 47.2804 36.78 46.9284 36.78C46.5844 36.78 46.2804 36.868 46.0164 37.044C45.7524 37.22 45.5444 37.46 45.3924 37.764C45.2484 38.068 45.1764 38.412 45.1764 38.796C45.1764 39.172 45.2484 39.512 45.3924 39.816C45.5444 40.12 45.7524 40.36 46.0164 40.536C46.2804 40.712 46.5844 40.8 46.9284 40.8ZM55.0036 35.46C55.6436 35.46 56.1156 35.616 56.4196 35.928C56.7236 36.232 56.9236 36.628 57.0196 37.116L56.8156 37.008L56.9116 36.816C57.0076 36.632 57.1556 36.436 57.3556 36.228C57.5556 36.012 57.7956 35.832 58.0756 35.688C58.3636 35.536 58.6836 35.46 59.0356 35.46C59.6116 35.46 60.0476 35.584 60.3436 35.832C60.6476 36.08 60.8556 36.412 60.9676 36.828C61.0796 37.236 61.1356 37.692 61.1356 38.196V41.268C61.1356 41.476 61.0676 41.652 60.9316 41.796C60.7956 41.932 60.6236 42 60.4156 42C60.2076 42 60.0356 41.932 59.8996 41.796C59.7636 41.652 59.6956 41.476 59.6956 41.268V38.196C59.6956 37.932 59.6636 37.696 59.5996 37.488C59.5356 37.272 59.4196 37.1 59.2516 36.972C59.0836 36.844 58.8436 36.78 58.5316 36.78C58.2276 36.78 57.9676 36.844 57.7516 36.972C57.5356 37.1 57.3716 37.272 57.2596 37.488C57.1556 37.696 57.1036 37.932 57.1036 38.196V41.268C57.1036 41.476 57.0356 41.652 56.8996 41.796C56.7636 41.932 56.5916 42 56.3836 42C56.1756 42 56.0036 41.932 55.8676 41.796C55.7316 41.652 55.6636 41.476 55.6636 41.268V38.196C55.6636 37.932 55.6316 37.696 55.5676 37.488C55.5036 37.272 55.3876 37.1 55.2196 36.972C55.0516 36.844 54.8116 36.78 54.4996 36.78C54.1956 36.78 53.9356 36.844 53.7196 36.972C53.5036 37.1 53.3396 37.272 53.2276 37.488C53.1236 37.696 53.0716 37.932 53.0716 38.196V41.268C53.0716 41.476 53.0036 41.652 52.8676 41.796C52.7316 41.932 52.5596 42 52.3516 42C52.1436 42 51.9716 41.932 51.8356 41.796C51.6996 41.652 51.6316 41.476 51.6316 41.268V36.312C51.6316 36.104 51.6996 35.932 51.8356 35.796C51.9716 35.652 52.1436 35.58 52.3516 35.58C52.5596 35.58 52.7316 35.652 52.8676 35.796C53.0036 35.932 53.0716 36.104 53.0716 36.312V36.828L52.8916 36.792C52.9636 36.656 53.0636 36.512 53.1916 36.36C53.3196 36.2 53.4756 36.052 53.6596 35.916C53.8436 35.78 54.0476 35.672 54.2716 35.592C54.4956 35.504 54.7396 35.46 55.0036 35.46ZM67.9501 35.46C68.1581 35.46 68.3301 35.528 68.4661 35.664C68.6021 35.8 68.6701 35.976 68.6701 36.192V41.268C68.6701 41.476 68.6021 41.652 68.4661 41.796C68.3301 41.932 68.1581 42 67.9501 42C67.7421 42 67.5701 41.932 67.4341 41.796C67.2981 41.652 67.2301 41.476 67.2301 41.268V40.68L67.4941 40.788C67.4941 40.892 67.4381 41.02 67.3261 41.172C67.2141 41.316 67.0621 41.46 66.8701 41.604C66.6781 41.748 66.4501 41.872 66.1861 41.976C65.9301 42.072 65.6501 42.12 65.3461 42.12C64.7941 42.12 64.2941 41.98 63.8461 41.7C63.3981 41.412 63.0421 41.02 62.7781 40.524C62.5221 40.02 62.3941 39.444 62.3941 38.796C62.3941 38.14 62.5221 37.564 62.7781 37.068C63.0421 36.564 63.3941 36.172 63.8341 35.892C64.2741 35.604 64.7621 35.46 65.2981 35.46C65.6421 35.46 65.9581 35.512 66.2461 35.616C66.5341 35.72 66.7821 35.852 66.9901 36.012C67.2061 36.172 67.3701 36.336 67.4821 36.504C67.6021 36.664 67.6621 36.8 67.6621 36.912L67.2301 37.068V36.192C67.2301 35.984 67.2981 35.812 67.4341 35.676C67.5701 35.532 67.7421 35.46 67.9501 35.46ZM65.5261 40.8C65.8781 40.8 66.1861 40.712 66.4501 40.536C66.7141 40.36 66.9181 40.12 67.0621 39.816C67.2141 39.512 67.2901 39.172 67.2901 38.796C67.2901 38.412 67.2141 38.068 67.0621 37.764C66.9181 37.46 66.7141 37.22 66.4501 37.044C66.1861 36.868 65.8781 36.78 65.5261 36.78C65.1821 36.78 64.8781 36.868 64.6141 37.044C64.3501 37.22 64.1421 37.46 63.9901 37.764C63.8461 38.068 63.7741 38.412 63.7741 38.796C63.7741 39.172 63.8461 39.512 63.9901 39.816C64.1421 40.12 64.3501 40.36 64.6141 40.536C64.8781 40.712 65.1821 40.8 65.5261 40.8ZM70.9492 42C70.7412 42 70.5692 41.932 70.4332 41.796C70.2972 41.652 70.2292 41.476 70.2292 41.268V36.312C70.2292 36.104 70.2972 35.932 70.4332 35.796C70.5692 35.652 70.7412 35.58 70.9492 35.58C71.1572 35.58 71.3292 35.652 71.4652 35.796C71.6012 35.932 71.6692 36.104 71.6692 36.312V37.44L71.5852 36.636C71.6732 36.444 71.7852 36.276 71.9212 36.132C72.0652 35.98 72.2252 35.856 72.4012 35.76C72.5772 35.656 72.7652 35.58 72.9652 35.532C73.1652 35.484 73.3652 35.46 73.5652 35.46C73.8052 35.46 74.0052 35.528 74.1652 35.664C74.3332 35.8 74.4172 35.96 74.4172 36.144C74.4172 36.408 74.3492 36.6 74.2132 36.72C74.0772 36.832 73.9292 36.888 73.7692 36.888C73.6172 36.888 73.4772 36.86 73.3492 36.804C73.2292 36.748 73.0892 36.72 72.9292 36.72C72.7852 36.72 72.6372 36.756 72.4852 36.828C72.3412 36.892 72.2052 36.996 72.0772 37.14C71.9572 37.284 71.8572 37.464 71.7772 37.68C71.7052 37.888 71.6692 38.136 71.6692 38.424V41.268C71.6692 41.476 71.6012 41.652 71.4652 41.796C71.3292 41.932 71.1572 42 70.9492 42ZM80.5477 35.46C80.7557 35.46 80.9277 35.528 81.0637 35.664C81.1997 35.8 81.2677 35.976 81.2677 36.192V41.268C81.2677 41.476 81.1997 41.652 81.0637 41.796C80.9277 41.932 80.7557 42 80.5477 42C80.3397 42 80.1677 41.932 80.0317 41.796C79.8957 41.652 79.8277 41.476 79.8277 41.268V40.68L80.0917 40.788C80.0917 40.892 80.0357 41.02 79.9237 41.172C79.8117 41.316 79.6597 41.46 79.4677 41.604C79.2757 41.748 79.0477 41.872 78.7837 41.976C78.5277 42.072 78.2477 42.12 77.9437 42.12C77.3917 42.12 76.8917 41.98 76.4437 41.7C75.9957 41.412 75.6397 41.02 75.3757 40.524C75.1197 40.02 74.9917 39.444 74.9917 38.796C74.9917 38.14 75.1197 37.564 75.3757 37.068C75.6397 36.564 75.9917 36.172 76.4317 35.892C76.8717 35.604 77.3597 35.46 77.8957 35.46C78.2397 35.46 78.5557 35.512 78.8437 35.616C79.1317 35.72 79.3797 35.852 79.5877 36.012C79.8037 36.172 79.9677 36.336 80.0797 36.504C80.1997 36.664 80.2597 36.8 80.2597 36.912L79.8277 37.068V36.192C79.8277 35.984 79.8957 35.812 80.0317 35.676C80.1677 35.532 80.3397 35.46 80.5477 35.46ZM78.1237 40.8C78.4757 40.8 78.7837 40.712 79.0477 40.536C79.3117 40.36 79.5157 40.12 79.6597 39.816C79.8117 39.512 79.8877 39.172 79.8877 38.796C79.8877 38.412 79.8117 38.068 79.6597 37.764C79.5157 37.46 79.3117 37.22 79.0477 37.044C78.7837 36.868 78.4757 36.78 78.1237 36.78C77.7797 36.78 77.4757 36.868 77.2117 37.044C76.9477 37.22 76.7397 37.46 76.5877 37.764C76.4437 38.068 76.3717 38.412 76.3717 38.796C76.3717 39.172 76.4437 39.512 76.5877 39.816C76.7397 40.12 76.9477 40.36 77.2117 40.536C77.4757 40.712 77.7797 40.8 78.1237 40.8ZM83.6069 37.308C83.3749 37.308 83.1949 37.248 83.0669 37.128C82.9469 37 82.8869 36.82 82.8869 36.588V36.384C82.8869 36.152 82.9469 35.976 83.0669 35.856C83.1949 35.728 83.3749 35.664 83.6069 35.664H83.7629C83.9949 35.664 84.1709 35.728 84.2909 35.856C84.4189 35.976 84.4829 36.152 84.4829 36.384V36.588C84.4829 36.82 84.4189 37 84.2909 37.128C84.1709 37.248 83.9949 37.308 83.7629 37.308H83.6069ZM83.6069 42C83.3749 42 83.1949 41.94 83.0669 41.82C82.9469 41.692 82.8869 41.512 82.8869 41.28V41.076C82.8869 40.844 82.9469 40.668 83.0669 40.548C83.1949 40.42 83.3749 40.356 83.6069 40.356H83.7629C83.9949 40.356 84.1709 40.42 84.2909 40.548C84.4189 40.668 84.4829 40.844 84.4829 41.076V41.28C84.4829 41.512 84.4189 41.692 84.2909 41.82C84.1709 41.94 83.9949 42 83.7629 42H83.6069Z" fill="#373536"/>
<defs>
<filter id="filter0_d_265_617" x="0.75" y="0.75" width="218.5" height="124.819" filterUnits="userSpaceOnUse" color-interpolation-filters="sRGB">
<feFlood flood-opacity="0" result="BackgroundImageFix"/>
<feColorMatrix in="SourceAlpha" type="matrix" values="0 0 0 0 0 0 0 0 0 0 0 0 0 0 0 0 0 0 127 0" result="hardAlpha"/>
<feOffset dy="2"/>
<feGaussianBlur stdDeviation="11.5"/>
<feComposite in2="hardAlpha" operator="out"/>
<feColorMatrix type="matrix" values="0 0 0 0 0.466667 0 0 0 0 0.4375 0 0 0 0 0.4375 0 0 0 0.25 0"/>
<feBlend mode="normal" in2="BackgroundImageFix" result="effect1_dropShadow_265_617"/>
<feBlend mode="normal" in="SourceGraphic" in2="effect1_dropShadow_265_617" result="shape"/>
</filter>
</defs>
</svg>
