<svg width="38" height="24" viewBox="0 0 38 24" fill="none" xmlns="http://www.w3.org/2000/svg">
<path opacity="0.2" d="M36.1414 12.0147C27.6788 30.2331 23.3789 21.1569 19.079 12.079L36.1414 12.0147ZM2.01664 12.1434L19.079 12.079C14.7791 3.00121 10.4793 -6.07499 2.01664 12.1434Z" fill="#4593C9"/>
<path d="M37.3313 12.568C33.7509 20.2597 30.5816 23.8482 27.3332 23.8605C23.2153 23.876 20.6304 18.4192 17.8933 12.6413C15.7335 8.08192 13.2859 2.9133 10.8413 2.92251C8.15073 2.93266 4.90728 9.04969 3.21313 12.6967C3.06234 13.0057 2.7963 13.2432 2.47223 13.3581C2.14816 13.473 1.79193 13.4562 1.48015 13.3112C1.16837 13.1662 0.925932 12.9046 0.804972 12.5828C0.684013 12.2609 0.69419 11.9044 0.833317 11.59C4.39895 3.89837 7.57646 0.309802 10.8314 0.29753C14.9494 0.282005 17.5343 5.73886 20.2713 11.5167C22.4246 16.0761 24.8722 21.2447 27.3167 21.2355C30.0074 21.2254 33.2508 15.1083 34.945 11.4614C35.0957 11.1524 35.3618 10.9149 35.6859 10.8C36.0099 10.685 36.3662 10.7019 36.6779 10.8469C36.9897 10.9919 37.2322 11.2534 37.3531 11.5753C37.4741 11.8971 37.4639 12.2536 37.3248 12.568L37.3313 12.568Z" fill="#4593C9"/>
</svg>
