<svg width="168" height="102" viewBox="0 0 168 102" fill="none" xmlns="http://www.w3.org/2000/svg">
<g filter="url(#filter0_d_561_240)">
<path fill-rule="evenodd" clip-rule="evenodd" d="M30 22C26.6863 22 24 24.6863 24 28V63.6586C24 66.9724 26.6863 69.6586 30 69.6586H65.7802L65.4887 76.7401L69.6806 69.6586H138.03C141.344 69.6586 144.03 66.9724 144.03 63.6587V28C144.03 24.6863 141.344 22 138.03 22H30Z" fill="white" shape-rendering="crispEdges"/>
<path d="M65.7802 69.6586L66.03 69.6689L66.0407 69.4086H65.7802V69.6586ZM65.4887 76.7401L65.2389 76.7298L65.7038 76.8674L65.4887 76.7401ZM69.6806 69.6586V69.4086H69.5381L69.4655 69.5313L69.6806 69.6586ZM24.25 28C24.25 24.8244 26.8244 22.25 30 22.25V21.75C26.5482 21.75 23.75 24.5482 23.75 28H24.25ZM24.25 63.6586V28H23.75V63.6586H24.25ZM30 69.4086C26.8244 69.4086 24.25 66.8343 24.25 63.6586H23.75C23.75 67.1104 26.5482 69.9086 30 69.9086V69.4086ZM65.7802 69.4086H30V69.9086H65.7802V69.4086ZM65.7385 76.7504L66.03 69.6689L65.5305 69.6484L65.2389 76.7298L65.7385 76.7504ZM69.4655 69.5313L65.2736 76.6127L65.7038 76.8674L69.8958 69.786L69.4655 69.5313ZM138.03 69.4086H69.6806V69.9086H138.03V69.4086ZM143.78 63.6587C143.78 66.8343 141.206 69.4086 138.03 69.4086V69.9086C141.482 69.9086 144.28 67.1104 144.28 63.6587H143.78ZM143.78 28V63.6587H144.28V28H143.78ZM138.03 22.25C141.206 22.25 143.78 24.8244 143.78 28H144.28C144.28 24.5482 141.482 21.75 138.03 21.75V22.25ZM30 22.25H138.03V21.75H30V22.25Z" fill="#5E5E5E" fill-opacity="0.2"/>
</g>
<defs>
<filter id="filter0_d_561_240" x="0.75" y="0.75" width="166.53" height="101.117" filterUnits="userSpaceOnUse" color-interpolation-filters="sRGB">
<feFlood flood-opacity="0" result="BackgroundImageFix"/>
<feColorMatrix in="SourceAlpha" type="matrix" values="0 0 0 0 0 0 0 0 0 0 0 0 0 0 0 0 0 0 127 0" result="hardAlpha"/>
<feOffset dy="2"/>
<feGaussianBlur stdDeviation="11.5"/>
<feComposite in2="hardAlpha" operator="out"/>
<feColorMatrix type="matrix" values="0 0 0 0 0.466667 0 0 0 0 0.4375 0 0 0 0 0.4375 0 0 0 0.25 0"/>
<feBlend mode="normal" in2="BackgroundImageFix" result="effect1_dropShadow_561_240"/>
<feBlend mode="normal" in="SourceGraphic" in2="effect1_dropShadow_561_240" result="shape"/>
</filter>
</defs>
</svg>
