<svg width="15" height="18" viewBox="0 0 15 18" fill="none" xmlns="http://www.w3.org/2000/svg">
<path d="M8.1951 1.70333C7.33295 1.17836 6.21881 1.73573 6.12221 2.74067L5.97582 4.25679H8.39969C8.59859 4.25679 8.78935 4.33581 8.92999 4.47645C9.07064 4.6171 9.14965 4.80785 9.14965 5.00675C9.14965 5.20566 9.07064 5.39641 8.92999 5.53706C8.78935 5.6777 8.59859 5.75671 8.39969 5.75671H5.83183L4.97387 14.6542C4.76628 16.8009 2.25122 17.8509 0.579706 16.4877L0.276122 16.24C0.121934 16.1143 0.0239966 15.9324 0.0038563 15.7345C-0.016284 15.5366 0.0430221 15.3388 0.168728 15.1846C0.294434 15.0304 0.476243 14.9325 0.674158 14.9123C0.872074 14.8922 1.06988 14.9515 1.22407 15.0772L1.52766 15.325C2.27042 15.931 3.38816 15.4642 3.48055 14.5103L4.32411 5.75671H3.07797C2.87907 5.75671 2.68832 5.6777 2.54767 5.53706C2.40703 5.39641 2.32801 5.20566 2.32801 5.00675C2.32801 4.80785 2.40703 4.6171 2.54767 4.47645C2.68832 4.33581 2.87907 4.25679 3.07797 4.25679H4.4699L4.62949 2.59668C4.83288 0.490192 7.16856 -0.679146 8.97566 0.421796L9.53963 0.765578C9.62378 0.816791 9.69701 0.884076 9.75516 0.963592C9.8133 1.04311 9.85521 1.1333 9.8785 1.22901C9.90179 1.32472 9.906 1.42409 9.89088 1.52143C9.87577 1.61877 9.84163 1.71218 9.79042 1.79632C9.73921 1.88047 9.67192 1.95371 9.5924 2.01185C9.51289 2.06999 9.4227 2.1119 9.32699 2.13519C9.13368 2.18222 8.92962 2.15054 8.75967 2.04711L8.1951 1.70333ZM14.7798 8.53757C14.9204 8.3969 14.9994 8.20612 14.9994 8.00719C14.9994 7.80827 14.9204 7.61749 14.7798 7.47682C14.6391 7.33616 14.4483 7.25714 14.2494 7.25714C14.0505 7.25714 13.8597 7.33616 13.719 7.47682L11.0852 10.1119L10.2608 8.37378C10.1392 8.11732 9.96223 7.89098 9.74273 7.71102C9.52324 7.53106 9.26661 7.40195 8.99128 7.33294C8.71596 7.26394 8.42877 7.25676 8.15034 7.31193C7.87191 7.3671 7.60916 7.48324 7.38095 7.65201L6.90397 8.00419C6.74771 8.12376 6.6447 8.29994 6.61714 8.49476C6.58958 8.68958 6.63969 8.88742 6.75665 9.04564C6.87362 9.20385 7.04808 9.30976 7.24242 9.34053C7.43676 9.3713 7.6354 9.32447 7.79552 9.21013L8.2725 8.85795C8.32267 8.82084 8.38045 8.79532 8.44166 8.7832C8.50288 8.77109 8.56602 8.77269 8.62655 8.7879C8.68707 8.8031 8.74348 8.83152 8.7917 8.87113C8.83993 8.91073 8.87878 8.96053 8.90547 9.01694L9.95961 11.2374L6.81998 14.3777C6.75033 14.4473 6.69508 14.53 6.65738 14.621C6.61969 14.712 6.60029 14.8095 6.60029 14.908C6.60029 15.0065 6.61969 15.1041 6.65738 15.1951C6.69508 15.2861 6.75033 15.3688 6.81998 15.4384C6.96064 15.5791 7.15142 15.6581 7.35035 15.6581C7.44885 15.6581 7.54638 15.6387 7.63738 15.601C7.72838 15.5633 7.81107 15.5081 7.88072 15.4384L10.6418 12.6767L11.5435 14.5786C11.6723 14.8502 11.8629 15.0878 12.1 15.2723C12.3372 15.4569 12.6143 15.5832 12.9092 15.6413C13.2041 15.6993 13.5084 15.6875 13.7978 15.6066C14.0873 15.5257 14.3537 15.3781 14.5758 15.1756L14.7552 15.0124C14.828 14.9461 14.887 14.8661 14.9289 14.7769C14.9707 14.6878 14.9946 14.5912 14.9992 14.4928C15.0038 14.3945 14.9889 14.2961 14.9555 14.2035C14.922 14.1108 14.8707 14.0257 14.8044 13.9529C14.738 13.8801 14.658 13.8211 14.5688 13.7792C14.4797 13.7373 14.3832 13.7134 14.2848 13.7088C14.1864 13.7043 14.0881 13.7191 13.9954 13.7526C13.9028 13.786 13.8176 13.8373 13.7448 13.9037L13.5654 14.0669C13.5166 14.1112 13.458 14.1434 13.3945 14.1611C13.3309 14.1787 13.2641 14.1813 13.1994 14.1685C13.1347 14.1557 13.0739 14.128 13.0218 14.0876C12.9697 14.0471 12.9278 13.995 12.8995 13.9355L11.7679 11.55L14.7798 8.53757Z" fill="#F0D43A"/>
</svg>
