<svg width="16" height="16" viewBox="0 0 16 16" fill="none" xmlns="http://www.w3.org/2000/svg">
<path d="M1 4.10998C1 4.9348 1.32778 5.72583 1.91122 6.30907C2.49467 6.8923 3.28599 7.21996 4.11111 7.21996C4.93623 7.21996 5.72755 6.8923 6.311 6.30907C6.89445 5.72583 7.22222 4.9348 7.22222 4.10998C7.22222 3.28516 6.89445 2.49413 6.311 1.91089C5.72755 1.32766 4.93623 1 4.11111 1C3.28599 1 2.49467 1.32766 1.91122 1.91089C1.32778 2.49413 1 3.28516 1 4.10998Z" stroke="#2681BF" stroke-width="2" stroke-linecap="round" stroke-linejoin="round"/>
<path d="M4.11108 1V4.10998H7.22219M5.66664 11.8849V14.9949M11.8889 9.55244V14.9949M8.77775 8.77495V14.9949M15 7.99745V14.9949" stroke="#2681BF" stroke-width="2" stroke-linecap="round" stroke-linejoin="round"/>
</svg>
