<svg width="24" height="24" viewBox="0 0 24 24" fill="none" xmlns="http://www.w3.org/2000/svg">
<path d="M1 5.88711C1 7.18325 1.51508 8.42631 2.43192 9.34282C3.34877 10.2593 4.59227 10.7742 5.88889 10.7742C7.1855 10.7742 8.42901 10.2593 9.34586 9.34282C10.2627 8.42631 10.7778 7.18325 10.7778 5.88711C10.7778 4.59097 10.2627 3.34791 9.34586 2.4314C8.42901 1.51489 7.1855 1 5.88889 1C4.59227 1 3.34877 1.51489 2.43192 2.4314C1.51508 3.34791 1 4.59097 1 5.88711Z" stroke="#2681BF" stroke-width="2" stroke-linecap="round" stroke-linejoin="round"/>
<path d="M5.88892 1V5.88711H10.7778M8.33336 18.1049V22.992M18.1111 14.4396V22.992M13.2222 13.2178V22.992M23 11.996V22.992" stroke="#2681BF" stroke-width="2" stroke-linecap="round" stroke-linejoin="round"/>
</svg>
