<svg width="14" height="14" viewBox="0 0 14 14" fill="none" xmlns="http://www.w3.org/2000/svg">
<path d="M8.16671 10.6867C7.53047 10.3792 6.98406 9.91312 6.58004 9.33335H1.75004V2.33335H12.25V3.65169C12.7223 3.98362 13.1197 4.41086 13.4167 4.90585V2.33335C13.4167 2.02393 13.2938 1.72719 13.075 1.5084C12.8562 1.2896 12.5595 1.16669 12.25 1.16669H1.75004C1.44062 1.16669 1.14388 1.2896 0.925083 1.5084C0.70629 1.72719 0.583374 2.02393 0.583374 2.33335V9.33335C0.583374 9.64277 0.70629 9.93952 0.925083 10.1583C1.14388 10.3771 1.44062 10.5 1.75004 10.5H5.83337V11.6667H4.66671V12.8334H9.33337V11.6667H8.16671V10.6867Z" fill="#2681BF"/>
<path d="M9.91663 3.5C9.22439 3.5 8.5477 3.70527 7.97213 4.08986C7.39656 4.47444 6.94796 5.02107 6.68305 5.66061C6.41814 6.30015 6.34883 7.00388 6.48388 7.68282C6.61893 8.36175 6.95227 8.98539 7.44175 9.47487C7.93124 9.96436 8.55488 10.2977 9.23381 10.4327C9.91275 10.5678 10.6165 10.4985 11.256 10.2336C11.8956 9.96867 12.4422 9.52007 12.8268 8.9445C13.2114 8.36892 13.4166 7.69223 13.4166 7C13.4166 6.07174 13.0479 5.1815 12.3915 4.52513C11.7351 3.86875 10.8449 3.5 9.91663 3.5ZM9.91663 7.875C9.74357 7.875 9.5744 7.82368 9.4305 7.72754C9.28661 7.63139 9.17446 7.49473 9.10823 7.33485C9.04201 7.17496 9.02468 6.99903 9.05844 6.8293C9.0922 6.65956 9.17554 6.50365 9.29791 6.38128C9.42028 6.25891 9.57619 6.17558 9.74592 6.14181C9.91566 6.10805 10.0916 6.12538 10.2515 6.19161C10.4114 6.25783 10.548 6.36998 10.6442 6.51388C10.7403 6.65777 10.7916 6.82694 10.7916 7C10.7916 7.23206 10.6994 7.45462 10.5353 7.61872C10.3713 7.78281 10.1487 7.875 9.91663 7.875Z" fill="#2681BF"/>
</svg>
