<svg width="22" height="22" viewBox="0 0 22 22" fill="none" xmlns="http://www.w3.org/2000/svg">
<path d="M12.8332 16.7933C11.8334 16.3101 10.9747 15.5777 10.3398 14.6667H2.74984V3.66668H19.2498V5.73834C19.992 6.25995 20.6165 6.93133 21.0832 7.70918V3.66668C21.0832 3.18045 20.89 2.71413 20.5462 2.37031C20.2024 2.0265 19.7361 1.83334 19.2498 1.83334H2.74984C2.26361 1.83334 1.79729 2.0265 1.45347 2.37031C1.10966 2.71413 0.916504 3.18045 0.916504 3.66668V14.6667C0.916504 15.1529 1.10966 15.6192 1.45347 15.963C1.79729 16.3069 2.26361 16.5 2.74984 16.5H9.1665V18.3333H7.33317V20.1667H14.6665V18.3333H12.8332V16.7933Z" fill="#2681BF"/>
<path d="M15.5835 5.5C14.4957 5.5 13.4323 5.82257 12.5279 6.42692C11.6234 7.03126 10.9184 7.89025 10.5022 8.89524C10.0859 9.90023 9.97696 11.0061 10.1892 12.073C10.4014 13.1399 10.9252 14.1199 11.6944 14.8891C12.4636 15.6583 13.4436 16.1821 14.5105 16.3943C15.5774 16.6065 16.6833 16.4976 17.6883 16.0813C18.6933 15.6651 19.5522 14.9601 20.1566 14.0556C20.7609 13.1512 21.0835 12.0878 21.0835 11C21.0835 9.54131 20.504 8.14236 19.4726 7.11091C18.4411 6.07946 17.0422 5.5 15.5835 5.5ZM15.5835 12.375C15.3115 12.375 15.0457 12.2944 14.8196 12.1433C14.5935 11.9922 14.4172 11.7774 14.3132 11.5262C14.2091 11.2749 14.1819 10.9985 14.2349 10.7318C14.288 10.465 14.4189 10.22 14.6112 10.0277C14.8035 9.83543 15.0485 9.70447 15.3152 9.65142C15.582 9.59837 15.8584 9.6256 16.1097 9.72967C16.3609 9.83374 16.5757 10.01 16.7268 10.2361C16.8779 10.4622 16.9585 10.7281 16.9585 11C16.9585 11.3647 16.8136 11.7144 16.5558 11.9723C16.2979 12.2301 15.9482 12.375 15.5835 12.375Z" fill="#2681BF"/>
</svg>
