<svg width="33" height="27" viewBox="0 0 33 27" fill="none" xmlns="http://www.w3.org/2000/svg">
<g clip-path="url(#clip0_265_654)">
<path d="M7.425 0C8.51902 0 9.56823 0.433303 10.3418 1.20459C11.1154 1.97587 11.55 3.02196 11.55 4.11272C11.55 5.20349 11.1154 6.24957 10.3418 7.02086C9.56823 7.79214 8.51902 8.22545 7.425 8.22545C6.33098 8.22545 5.28177 7.79214 4.50818 7.02086C3.7346 6.24957 3.3 5.20349 3.3 4.11272C3.3 3.02196 3.7346 1.97587 4.50818 1.20459C5.28177 0.433303 6.33098 0 7.425 0ZM26.4 0C27.494 0 28.5432 0.433303 29.3168 1.20459C30.0904 1.97587 30.525 3.02196 30.525 4.11272C30.525 5.20349 30.0904 6.24957 29.3168 7.02086C28.5432 7.79214 27.494 8.22545 26.4 8.22545C25.306 8.22545 24.2568 7.79214 23.4832 7.02086C22.7096 6.24957 22.275 5.20349 22.275 4.11272C22.275 3.02196 22.7096 1.97587 23.4832 1.20459C24.2568 0.433303 25.306 0 26.4 0ZM0 15.3559C0 12.3279 2.46469 9.87053 5.50172 9.87053H7.70344C8.52328 9.87053 9.30188 10.0505 10.0031 10.3692C9.93609 10.7393 9.90516 11.1249 9.90516 11.5156C9.90516 13.4794 10.7714 15.2428 12.1378 16.4509H1.09828C0.495 16.4509 0 15.9574 0 15.3559ZM20.8983 16.4509H20.8622C22.2337 15.2428 23.0948 13.4794 23.0948 11.5156C23.0948 11.1249 23.0588 10.7445 22.9969 10.3692C23.6981 10.0453 24.4767 9.87053 25.2966 9.87053H27.4983C30.5353 9.87053 33 12.3279 33 15.3559C33 15.9625 32.505 16.4509 31.9017 16.4509H20.8983ZM11.55 11.5156C11.55 10.2067 12.0715 8.95141 12.9998 8.02586C13.9281 7.10032 15.1872 6.58036 16.5 6.58036C17.8128 6.58036 19.0719 7.10032 20.0002 8.02586C20.9285 8.95141 21.45 10.2067 21.45 11.5156C21.45 12.8245 20.9285 14.0798 20.0002 15.0054C19.0719 15.9309 17.8128 16.4509 16.5 16.4509C15.1872 16.4509 13.9281 15.9309 12.9998 15.0054C12.0715 14.0798 11.55 12.8245 11.55 11.5156ZM6.6 24.9488C6.6 21.1651 9.67828 18.096 13.4733 18.096H19.5267C23.3217 18.096 26.4 21.1651 26.4 24.9488C26.4 25.7045 25.7864 26.3214 25.0233 26.3214H7.97672C7.21875 26.3214 6.6 25.7097 6.6 24.9488Z" fill="#01BAFF"/>
</g>
<defs>
<clipPath id="clip0_265_654">
<rect width="33" height="26.3214" fill="white"/>
</clipPath>
</defs>
</svg>
