<svg width="23" height="19" viewBox="0 0 23 19" fill="none" xmlns="http://www.w3.org/2000/svg">
<g clip-path="url(#clip0_454_208)">
<path d="M5.08612 0C5.83553 0 6.55424 0.296813 7.08414 0.825143C7.61405 1.35347 7.91175 2.07004 7.91175 2.81722C7.91175 3.56439 7.61405 4.28096 7.08414 4.80929C6.55424 5.33762 5.83553 5.63443 5.08612 5.63443C4.33672 5.63443 3.61801 5.33762 3.08811 4.80929C2.5582 4.28096 2.2605 3.56439 2.2605 2.81722C2.2605 2.07004 2.5582 1.35347 3.08811 0.825143C3.61801 0.296813 4.33672 0 5.08612 0ZM18.084 0C18.8334 0 19.5521 0.296813 20.082 0.825143C20.6119 1.35347 20.9096 2.07004 20.9096 2.81722C20.9096 3.56439 20.6119 4.28096 20.082 4.80929C19.5521 5.33762 18.8334 5.63443 18.084 5.63443C17.3346 5.63443 16.6159 5.33762 16.086 4.80929C15.5561 4.28096 15.2584 3.56439 15.2584 2.81722C15.2584 2.07004 15.5561 1.35347 16.086 0.825143C16.6159 0.296813 17.3346 0 18.084 0ZM0 10.5188C0 8.4446 1.68831 6.76132 3.76868 6.76132H5.27685C5.83845 6.76132 6.37178 6.88457 6.85214 7.1029C6.80622 7.35645 6.78503 7.62057 6.78503 7.8882C6.78503 9.23342 7.37841 10.4413 8.3144 11.2689H0.752323C0.339075 11.2689 0 10.9308 0 10.5188ZM14.3153 11.2689H14.2906C15.2301 10.4413 15.82 9.23342 15.82 7.8882C15.82 7.62057 15.7952 7.35997 15.7529 7.1029C16.2332 6.88105 16.7666 6.76132 17.3281 6.76132H18.8363C20.9167 6.76132 22.605 8.4446 22.605 10.5188C22.605 10.9343 22.2659 11.2689 21.8527 11.2689H14.3153ZM7.91175 7.8882C7.91175 6.9916 8.26899 6.13171 8.90488 5.49772C9.54077 4.86372 10.4032 4.50754 11.3025 4.50754C12.2018 4.50754 13.0642 4.86372 13.7001 5.49772C14.336 6.13171 14.6932 6.9916 14.6932 7.8882C14.6932 8.78481 14.336 9.64469 13.7001 10.2787C13.0642 10.9127 12.2018 11.2689 11.3025 11.2689C10.4032 11.2689 9.54077 10.9127 8.90488 10.2787C8.26899 9.64469 7.91175 8.78481 7.91175 7.8882ZM4.521 17.0899C4.521 14.4981 6.62962 12.3957 9.2292 12.3957H13.3758C15.9754 12.3957 18.084 14.4981 18.084 17.0899C18.084 17.6076 17.6637 18.0302 17.1409 18.0302H5.46405C4.94484 18.0302 4.521 17.6111 4.521 17.0899Z" fill="#01BAFF"/>
</g>
<defs>
<clipPath id="clip0_454_208">
<rect width="22.605" height="18.0302" fill="white"/>
</clipPath>
</defs>
</svg>
