<svg width="26" height="29" viewBox="0 0 26 29" fill="none" xmlns="http://www.w3.org/2000/svg">
<path fill-rule="evenodd" clip-rule="evenodd" d="M13 0C12.6169 0 12.2495 0.152182 11.9786 0.423068C11.7077 0.693954 11.5556 1.06135 11.5556 1.44444V4.33333H2.88889C2.12271 4.33333 1.38791 4.6377 0.846136 5.17947C0.304364 5.72124 0 6.45604 0 7.22222V26C0 26.7662 0.304364 27.501 0.846136 28.0428C1.38791 28.5845 2.12271 28.8889 2.88889 28.8889H23.1111C23.8773 28.8889 24.6121 28.5845 25.1539 28.0428C25.6956 27.501 26 26.7662 26 26V7.22222C26 6.45604 25.6956 5.72124 25.1539 5.17947C24.6121 4.6377 23.8773 4.33333 23.1111 4.33333H14.4444V1.44444C14.4444 1.06135 14.2923 0.693954 14.0214 0.423068C13.7505 0.152182 13.3831 0 13 0ZM14.4444 4.33333V17.0849L17.0849 14.4444C17.3557 14.1734 17.7232 14.0211 18.1063 14.0209C18.4895 14.0208 18.857 14.1729 19.1281 14.4437C19.3991 14.7146 19.5514 15.082 19.5516 15.4652C19.5517 15.8483 19.3996 16.2159 19.1288 16.4869L14.2754 21.3388C13.9369 21.677 13.4779 21.8671 12.9993 21.8671C12.5207 21.8671 12.0617 21.677 11.7231 21.3388L6.87122 16.4869C6.73711 16.3527 6.63075 16.1934 6.55821 16.0181C6.48567 15.8428 6.44836 15.6549 6.44843 15.4652C6.4485 15.2754 6.48593 15.0876 6.5586 14.9123C6.63127 14.7371 6.73774 14.5778 6.87194 14.4437C7.00615 14.3096 7.16545 14.2033 7.34076 14.1307C7.51607 14.0582 7.70395 14.0209 7.89368 14.0209C8.0834 14.021 8.27126 14.0584 8.44652 14.1311C8.62177 14.2038 8.781 14.3102 8.91511 14.4444L11.5556 17.0849V4.33333H14.4444Z" fill="#01BAFF"/>
</svg>
