<svg width="19" height="21" viewBox="0 0 19 21" fill="none" xmlns="http://www.w3.org/2000/svg">
<path fill-rule="evenodd" clip-rule="evenodd" d="M9.47482 0.60498C9.21241 0.60498 8.96074 0.709225 8.77518 0.894782C8.58962 1.08034 8.48538 1.33201 8.48538 1.59442V3.57331H2.54871C2.02388 3.57331 1.52054 3.7818 1.14943 4.15292C0.778314 4.52403 0.569824 5.02737 0.569824 5.5522V18.415C0.569824 18.9398 0.778314 19.4432 1.14943 19.8143C1.52054 20.1854 2.02388 20.3939 2.54871 20.3939H16.4009C16.9258 20.3939 17.4291 20.1854 17.8002 19.8143C18.1713 19.4432 18.3798 18.9398 18.3798 18.415V5.5522C18.3798 5.02737 18.1713 4.52403 17.8002 4.15292C17.4291 3.7818 16.9258 3.57331 16.4009 3.57331H10.4643V1.59442C10.4643 1.33201 10.36 1.08034 10.1745 0.894782C9.98891 0.709225 9.73724 0.60498 9.47482 0.60498ZM10.4643 3.57331V12.3081L12.273 10.4994C12.4585 10.3138 12.7102 10.2094 12.9727 10.2093C13.2351 10.2092 13.4869 10.3134 13.6725 10.4989C13.8582 10.6845 13.9626 10.9361 13.9626 11.1986C13.9627 11.4611 13.8586 11.7128 13.673 11.8985L10.3485 15.222C10.1166 15.4538 9.80217 15.5839 9.47433 15.5839C9.14649 15.5839 8.83207 15.4538 8.60016 15.222L5.27661 11.8985C5.18475 11.8066 5.11189 11.6974 5.0622 11.5774C5.0125 11.4573 4.98695 11.3286 4.987 11.1986C4.98704 11.0686 5.01269 10.94 5.06246 10.8199C5.11224 10.6999 5.18518 10.5908 5.27711 10.4989C5.36904 10.4071 5.47816 10.3342 5.59825 10.2845C5.71833 10.2348 5.84703 10.2093 5.97699 10.2093C6.10696 10.2094 6.23564 10.235 6.35569 10.2848C6.47574 10.3346 6.58481 10.4075 6.67668 10.4994L8.48538 12.3081V3.57331H10.4643Z" fill="#01BAFF"/>
</svg>
