<svg width="57" height="56" viewBox="0 0 57 56" fill="none" xmlns="http://www.w3.org/2000/svg">
<path d="M28.5797 2.33358C28.96 2.33503 29.3341 2.43008 29.669 2.61035C30.004 2.79063 30.2893 3.05057 30.5 3.36725L30.6563 3.63791L37.311 17.1269L52.1977 19.2852C53.9267 19.5372 54.7177 21.4786 53.838 22.8459L53.6747 23.0676L53.4927 23.2682L42.7033 33.7659L45.2467 48.5942C45.3129 48.981 45.2806 49.3783 45.1528 49.7493C45.025 50.1204 44.8057 50.4532 44.5153 50.7171C44.2249 50.9811 43.8726 51.1675 43.4911 51.2594C43.1096 51.3512 42.711 51.3454 42.3323 51.2426L42.0967 51.1609L41.861 51.0536L28.5773 44.0536L15.2633 51.0536C15.0183 51.1819 14.7687 51.2636 14.5167 51.3009L14.2693 51.3242C13.9437 51.3362 13.6191 51.2799 13.3164 51.1592C13.0138 51.0384 12.7397 50.8557 12.5117 50.6229C12.2837 50.3901 12.1068 50.1122 11.9924 49.807C11.878 49.5019 11.8286 49.1763 11.8473 48.8509L11.8777 48.5942L14.421 33.7659L3.634 23.2659C3.35505 22.9942 3.14846 22.6571 3.03302 22.2852C2.91758 21.9133 2.89695 21.5185 2.973 21.1366C3.04906 20.7547 3.21938 20.3979 3.46849 20.0986C3.7176 19.7993 4.03758 19.567 4.39933 19.4229L4.663 19.3389L4.929 19.2852L19.8133 17.1269L26.4703 3.64025C26.656 3.24034 26.9547 2.90352 27.3295 2.67133C27.7043 2.43914 28.1389 2.32173 28.5797 2.33358ZM28.5797 9.97291V39.0836C28.7676 39.0836 28.9548 39.1063 29.1373 39.1512L29.4057 39.2353L29.667 39.3519L39.8473 44.7162L37.8967 33.3459C37.8005 32.784 37.9134 32.2063 38.214 31.7219L38.3773 31.4909L38.5687 31.2809L46.8427 23.2239L35.4303 21.5719C34.8663 21.49 34.3517 21.2045 33.9837 20.7692L33.8133 20.5429L33.6733 20.2956L28.5797 9.97291Z" fill="#01BAFF"/>
</svg>
