<svg width="42" height="42" viewBox="0 0 42 42" fill="none" xmlns="http://www.w3.org/2000/svg">
<path d="M20.7301 1.72768C21.0116 1.72875 21.2886 1.79913 21.5366 1.93259C21.7845 2.06606 21.9958 2.25851 22.1518 2.49297L22.2675 2.69336L27.1944 12.68L38.2158 14.278C39.4959 14.4645 40.0815 15.9018 39.4302 16.9141L39.3093 17.0782L39.1746 17.2268L31.1866 24.9988L33.0696 35.9771C33.1186 36.2635 33.0947 36.5576 33.0001 36.8323C32.9055 37.107 32.7432 37.3534 32.5281 37.5488C32.3131 37.7442 32.0523 37.8823 31.7698 37.9502C31.4874 38.0182 31.1923 38.014 30.9119 37.9378L30.7375 37.8773L30.563 37.7979L20.7283 32.6154L10.8712 37.7979C10.6898 37.8929 10.505 37.9534 10.3184 37.981L10.1353 37.9983C9.89419 38.0071 9.65391 37.9655 9.42982 37.876C9.20574 37.7866 9.0028 37.6514 8.834 37.479C8.66519 37.3066 8.53425 37.1009 8.44956 36.875C8.36486 36.6491 8.32828 36.408 8.34215 36.1671L8.36461 35.9771L10.2476 24.9988L2.26135 17.2251C2.05483 17.0239 1.90188 16.7743 1.81642 16.499C1.73095 16.2237 1.71567 15.9313 1.77198 15.6486C1.82829 15.3659 1.95439 15.1017 2.13882 14.8801C2.32325 14.6585 2.56015 14.4866 2.82797 14.3799L3.02318 14.3177L3.22011 14.278L14.2398 12.68L19.1684 2.69508C19.3059 2.39901 19.527 2.14964 19.8045 1.97774C20.082 1.80583 20.4037 1.71891 20.7301 1.72768ZM20.7301 7.38352V28.9358C20.8692 28.9358 21.0078 28.9526 21.1429 28.9859L21.3416 29.0481L21.5351 29.1345L29.0722 33.106L27.628 24.6879C27.5568 24.2719 27.6403 23.8442 27.8629 23.4855L27.9838 23.3145L28.1255 23.159L34.2512 17.194L25.802 15.9709C25.3844 15.9103 25.0034 15.6989 24.7309 15.3767L24.6048 15.2091L24.5012 15.026L20.7301 7.38352Z" fill="#01BAFF"/>
</svg>
