<svg width="24" height="23" viewBox="0 0 24 23" fill="none" xmlns="http://www.w3.org/2000/svg">
<path d="M6.40537 0.384644H4.12213V3.77808H0.697266V6.04037H4.12213V9.43381H6.40537V6.04037H9.83024V3.77808H6.40537V0.384644ZM14.3967 3.77808H23.5297V6.04037H14.3967V3.77808ZM14.3967 15.0895H23.5297V17.3518H14.3967V15.0895ZM14.3967 19.6141H23.5297V21.8764H14.3967V19.6141ZM7.87807 14.2864L5.26375 16.8881L2.64944 14.2864L1.02834 15.8926L3.65407 18.483L1.02834 21.0733L2.64944 22.6795L5.26375 20.0779L7.87807 22.6795L9.49917 21.0733L6.87344 18.483L9.49917 15.8926L7.87807 14.2864Z" fill="url(#paint0_linear_265_286)"/>
<defs>
<linearGradient id="paint0_linear_265_286" x1="1.78291" y1="1.9753" x2="25.6947" y2="20.5066" gradientUnits="userSpaceOnUse">
<stop offset="0.0392657" stop-color="#2982C0"/>
<stop offset="1" stop-color="#01BAFF"/>
</linearGradient>
</defs>
</svg>
