<svg width="22" height="22" viewBox="0 0 22 22" fill="none" xmlns="http://www.w3.org/2000/svg">
<path d="M6.94255 16.4534C8.74774 17.5969 10.8788 18.6465 12.6205 18.6465C13.0127 18.6631 13.4042 18.6001 13.7712 18.4612C14.1382 18.3223 14.473 18.1104 14.7553 17.8384C16.4641 16.1314 14.86 13.0692 13.3067 10.1069L17.6429 5.78272C18.4154 6.2786 19.1665 6.80683 19.8943 7.366L20.8795 6.23445C20.1842 5.694 19.4681 5.18076 18.7327 4.6959L21.627 1.80963L20.57 0.756348L17.4254 3.89159C14.9467 2.46783 12.1122 1.47195 10.5275 3.05523C9.00263 4.57812 10.1149 7.1789 11.4753 9.82589L6.76091 14.5265C6.04268 14.0326 5.34447 13.5104 4.66793 12.9611L3.68723 14.0875C4.33324 14.6162 4.99766 15.1222 5.67929 15.6044L2.19225 19.0825V0.756348H0.697266V20.1373C0.697266 20.5327 0.854772 20.9119 1.13514 21.1915C1.4155 21.4711 1.79575 21.6281 2.19225 21.6281H21.627V20.1373H3.24845L6.94255 16.4534ZM11.5845 4.11149C12.4329 3.2632 14.3449 3.8983 16.3213 4.99332L12.5876 8.71596C11.6061 6.7637 10.831 4.86436 11.5845 4.11149ZM12.1982 11.2124C13.3792 13.4725 14.5767 15.9055 13.6984 16.7829C12.7177 17.7624 10.3182 16.7635 8.03837 15.3606L12.1982 11.2124Z" fill="url(#paint0_linear_265_294)"/>
<defs>
<linearGradient id="paint0_linear_265_294" x1="1.69244" y1="2.24548" x2="23.956" y2="19.14" gradientUnits="userSpaceOnUse">
<stop offset="0.0392657" stop-color="#2982C0"/>
<stop offset="1" stop-color="#01BAFF"/>
</linearGradient>
</defs>
</svg>
