<svg width="37" height="46" viewBox="0 0 37 46" fill="none" xmlns="http://www.w3.org/2000/svg">
<path d="M23.125 0H4.625C3.39837 0 2.22199 0.484641 1.35463 1.34731C0.487275 2.20998 0 3.38 0 4.6V41.4C0 42.62 0.487275 43.79 1.35463 44.6527C2.22199 45.5154 3.39837 46 4.625 46H32.375C33.6016 46 34.778 45.5154 35.6454 44.6527C36.5127 43.79 37 42.62 37 41.4V13.8L23.125 0ZM32.375 41.4H4.625V4.6H20.8125V16.1H32.375V41.4ZM13.875 25.3H6.9375V20.7H13.875V25.3ZM23.125 25.3H16.1875V20.7H23.125V25.3ZM13.875 32.2H6.9375V27.6H13.875V32.2ZM23.125 32.2H16.1875V27.6H23.125V32.2ZM13.875 39.1H6.9375V34.5H13.875V39.1ZM23.125 39.1H16.1875V34.5H23.125V39.1Z" fill="url(#paint0_linear_265_670)"/>
<defs>
<linearGradient id="paint0_linear_265_670" x1="1.7593" y1="3.28194" x2="47.0144" y2="30.8279" gradientUnits="userSpaceOnUse">
<stop offset="0.0392657" stop-color="#2982C0"/>
<stop offset="1" stop-color="#01BAFF"/>
</linearGradient>
</defs>
</svg>
