<svg width="48" height="47" viewBox="0 0 48 47" fill="none" xmlns="http://www.w3.org/2000/svg">
<path d="M12 0H7.2V7.15373H0V11.9229H7.2V19.0766H12V11.9229H19.2V7.15373H12V0ZM28.8 7.15373H48V11.9229H28.8V7.15373ZM28.8 30.9995H48V35.7687H28.8V30.9995ZM28.8 40.5378H48V45.307H28.8V40.5378ZM15.096 29.3064L9.6 34.791L4.104 29.3064L0.696 32.6925L6.216 38.1532L0.696 43.6139L4.104 47L9.6 41.5155L15.096 47L18.504 43.6139L12.984 38.1532L18.504 32.6925L15.096 29.3064Z" fill="url(#paint0_linear_265_675)"/>
<defs>
<linearGradient id="paint0_linear_265_675" x1="2.28233" y1="3.35328" x2="52.6559" y2="42.284" gradientUnits="userSpaceOnUse">
<stop offset="0.0392657" stop-color="#2982C0"/>
<stop offset="1" stop-color="#01BAFF"/>
</linearGradient>
</defs>
</svg>
