<svg width="51" height="52" viewBox="0 0 51 52" fill="none" xmlns="http://www.w3.org/2000/svg">
<path d="M1.60694 0L32.9447 27.865H49.3931L18.0553 0H1.60694ZM0 1.22101V4.05655L31.5714 32.1292V29.2938L0 1.22101ZM7.06494 12.9883V16.7823L38.6364 44.8549V35.5473L31.5714 34.1209L7.06494 12.9883ZM5.80153 18.3086L1.06581 19.485L32.8348 47.7337L37.5706 46.5573L5.80153 18.3086ZM0 21.1873V23.8034L31.5714 51.876V49.2599L0 21.1873ZM33.5584 29.8397V32.2502L40.6234 34.0055V47.8342L33.5584 49.5895V52H51V49.5895L43.9351 47.8342V34.0055L51 32.2502V29.8397H33.5584ZM45.9221 44.7447V46.2924L48.3374 46.8925L45.9221 44.7447Z" fill="url(#paint0_linear_265_691)"/>
<defs>
<linearGradient id="paint0_linear_265_691" x1="2.42498" y1="3.71001" x2="57.5496" y2="44.6228" gradientUnits="userSpaceOnUse">
<stop offset="0.0392657" stop-color="#2982C0"/>
<stop offset="1" stop-color="#01BAFF"/>
</linearGradient>
</defs>
</svg>
