<svg width="21" height="27" viewBox="0 0 21 27" fill="none" xmlns="http://www.w3.org/2000/svg">
<path d="M13.125 0H2.625C1.92881 0 1.26113 0.284463 0.768845 0.790812C0.276562 1.29716 0 1.98392 0 2.7V24.3C0 25.0161 0.276562 25.7028 0.768845 26.2092C1.26113 26.7155 1.92881 27 2.625 27H18.375C19.0712 27 19.7389 26.7155 20.2312 26.2092C20.7234 25.7028 21 25.0161 21 24.3V8.1L13.125 0ZM18.375 24.3H2.625V2.7H11.8125V9.45H18.375V24.3ZM7.875 14.85H3.9375V12.15H7.875V14.85ZM13.125 14.85H9.1875V12.15H13.125V14.85ZM7.875 18.9H3.9375V16.2H7.875V18.9ZM13.125 18.9H9.1875V16.2H13.125V18.9ZM7.875 22.95H3.9375V20.25H7.875V22.95ZM13.125 22.95H9.1875V20.25H13.125V22.95Z" fill="url(#paint0_linear_265_281)"/>
<defs>
<linearGradient id="paint0_linear_265_281" x1="0.99852" y1="1.92635" x2="27.1431" y2="17.3144" gradientUnits="userSpaceOnUse">
<stop offset="0.0392657" stop-color="#2982C0"/>
<stop offset="1" stop-color="#01BAFF"/>
</linearGradient>
</defs>
</svg>
