<svg width="76" height="38" viewBox="0 0 76 38" fill="none" xmlns="http://www.w3.org/2000/svg">
<path d="M57.3065 0C51.0441 0 46.0505 3.25058 42.9645 5.97867L42.8557 6.07525L41.0982 8.04967L44.9779 14.6379L47.8494 11.6628C50.8541 9.04083 54.2082 7.6 57.3065 7.6C63.5581 7.6 68.6452 12.7142 68.6452 19C68.6452 25.2858 63.5581 30.4 57.3065 30.4C47.8065 30.4 41.3495 17.4246 41.2852 17.2932C40.9113 16.5126 32.7229 0 18.6935 0C8.38605 0 0 8.52308 0 19C0 29.4769 8.38605 38 18.6935 38C23.7423 38 28.7115 35.9242 33.0646 31.996L33.1581 31.9105L34.9018 29.9503L31.0206 23.3621L28.1353 26.3514C25.129 29.0383 21.9511 30.4 18.6935 30.4C12.4419 30.4 7.35484 25.2858 7.35484 19C7.35484 12.7142 12.4419 7.6 18.6935 7.6C28.1935 7.6 34.6505 20.5754 34.7148 20.7068C35.0887 21.4874 43.2771 38 57.3065 38C67.614 38 76 29.4769 76 19C76 8.52308 67.614 0 57.3065 0Z" fill="url(#paint0_linear_265_665)"/>
<defs>
<linearGradient id="paint0_linear_265_665" x1="3.61369" y1="2.71116" x2="42.3287" y2="61.3055" gradientUnits="userSpaceOnUse">
<stop offset="0.0392657" stop-color="#2982C0"/>
<stop offset="1" stop-color="#01BAFF"/>
</linearGradient>
</defs>
</svg>
