<svg width="37" height="19" viewBox="0 0 37 19" fill="none" xmlns="http://www.w3.org/2000/svg">
<path d="M27.9566 0.128174C24.9777 0.128174 22.6024 1.67012 21.1344 2.96421L21.0827 3.01002L20.2467 3.94661L22.0922 7.0718L23.458 5.66054C24.8873 4.41678 26.4828 3.7333 27.9566 3.7333C30.9303 3.7333 33.3501 6.15925 33.3501 9.141C33.3501 12.1227 30.9303 14.5487 27.9566 14.5487C23.4376 14.5487 20.3662 8.39368 20.3356 8.33134C20.1578 7.96107 16.2628 0.128174 9.58933 0.128174C4.68631 0.128174 0.697266 4.17118 0.697266 9.141C0.697266 14.1108 4.68631 18.1538 9.58933 18.1538C11.9909 18.1538 14.3546 17.1692 16.4253 15.3058L16.4697 15.2652L17.2992 14.3354L15.453 11.2102L14.0806 12.6282C12.6505 13.9028 11.1389 14.5487 9.58933 14.5487C6.61559 14.5487 4.19578 12.1227 4.19578 9.141C4.19578 6.15925 6.61559 3.7333 9.58933 3.7333C14.1083 3.7333 17.1797 9.88831 17.2103 9.95065C17.3881 10.3209 21.2831 18.1538 27.9566 18.1538C32.8596 18.1538 36.8486 14.1108 36.8486 9.141C36.8486 4.17118 32.8596 0.128174 27.9566 0.128174Z" fill="url(#paint0_linear_265_276)"/>
<defs>
<linearGradient id="paint0_linear_265_276" x1="2.41621" y1="1.41424" x2="20.761" y2="29.2558" gradientUnits="userSpaceOnUse">
<stop offset="0.0392657" stop-color="#2982C0"/>
<stop offset="1" stop-color="#01BAFF"/>
</linearGradient>
</defs>
</svg>
