<svg width="44" height="44" viewBox="0 0 44 44" fill="none" xmlns="http://www.w3.org/2000/svg">
<path d="M13.1293 33.0911C16.9243 35.5017 21.4044 37.7143 25.0659 37.7143C25.8903 37.7495 26.7134 37.6166 27.4849 37.3237C28.2564 37.0309 28.9603 36.5842 29.5539 36.0109C33.1461 32.4123 29.7739 25.9569 26.5084 19.712L35.6243 10.5961C37.2483 11.6415 38.8275 12.7551 40.3574 13.9339L42.4286 11.5484C40.9669 10.4091 39.4613 9.32715 37.9154 8.305L44 2.22043L41.778 0L35.167 6.60943C29.9561 3.608 23.9973 1.50857 20.6659 4.84629C17.4601 8.05671 19.7984 13.5394 22.6584 19.1196L12.7474 29.029C11.2375 27.9879 9.76969 26.887 8.34743 25.729L6.28571 28.1034C7.6438 29.2181 9.04061 30.2847 10.4736 31.3013L3.14286 38.6336V0H0V40.8571C0 41.6907 0.331121 42.4901 0.920521 43.0795C1.50992 43.6689 2.30932 44 3.14286 44H44V40.8571H5.36329L13.1293 33.0911ZM22.8879 7.073C24.6714 5.28471 28.6911 6.62357 32.846 8.932L24.9967 16.7797C22.9334 12.6641 21.3039 8.66014 22.8879 7.073ZM24.178 22.0424C26.6609 26.807 29.1783 31.9361 27.3319 33.7857C25.2701 35.8506 20.2259 33.7449 15.433 30.7874L24.178 22.0424Z" fill="url(#paint0_linear_265_683)"/>
<defs>
<linearGradient id="paint0_linear_265_683" x1="2.09214" y1="3.13924" x2="48.991" y2="38.6294" gradientUnits="userSpaceOnUse">
<stop offset="0.0392657" stop-color="#2982C0"/>
<stop offset="1" stop-color="#01BAFF"/>
</linearGradient>
</defs>
</svg>
