<svg width="25" height="26" viewBox="0 0 25 26" fill="none" xmlns="http://www.w3.org/2000/svg">
<path d="M0.937235 0.487183L15.8438 13.7052H23.6679L8.76133 0.487183H0.937235ZM0.172852 1.06638V2.41144L15.1906 15.728V14.3829L0.172852 1.06638ZM3.53347 6.64828V8.44801L18.5512 21.7645V17.3493L15.1906 16.6727L3.53347 6.64828ZM2.9325 9.17204L0.679832 9.73005L15.7916 23.1301L18.0443 22.5721L2.9325 9.17204ZM0.172852 10.5375V11.7785L15.1906 25.095V23.8541L0.172852 10.5375ZM16.1358 14.6419V15.7854L19.4964 16.618V23.1778L16.1358 24.0104V25.1539H24.4323V24.0104L21.0717 23.1778V16.618L24.4323 15.7854V14.6419H16.1358ZM22.0169 21.7122V22.4464L23.1658 22.7311L22.0169 21.7122Z" fill="url(#paint0_linear_265_302)"/>
<defs>
<linearGradient id="paint0_linear_265_302" x1="1.32635" y1="2.24706" x2="27.4961" y2="21.7238" gradientUnits="userSpaceOnUse">
<stop offset="0.0392657" stop-color="#2982C0"/>
<stop offset="1" stop-color="#01BAFF"/>
</linearGradient>
</defs>
</svg>
