<svg width="26" height="20" viewBox="0 0 26 20" fill="none" xmlns="http://www.w3.org/2000/svg">
<path d="M0.482575 3.84196C0.527894 2.80776 0.97064 1.83095 1.71851 1.11518C2.46638 0.399417 3.46166 -7.22651e-05 4.49686 9.80518e-09H21.4611C22.4963 -7.22651e-05 23.4916 0.399417 24.2395 1.11518C24.9874 1.83095 25.4301 2.80776 25.4754 3.84196L24.1576 4.57411L12.979 10.5929L1.80043 4.57411L0.482575 3.84196ZM0.479004 5.88214V15.625C0.479004 16.6906 0.902313 17.7126 1.65581 18.4661C2.4093 19.2195 3.43126 19.6429 4.49686 19.6429H21.4611C22.5267 19.6429 23.5487 19.2195 24.3022 18.4661C25.0557 17.7126 25.479 16.6906 25.479 15.625V5.88214L25.0094 6.14375L13.4022 12.3938C13.2721 12.4638 13.1267 12.5004 12.979 12.5004C12.8313 12.5004 12.6859 12.4638 12.5558 12.3938L0.937932 6.1375L0.479004 5.88214Z" fill="white"/>
</svg>
