<svg width="26" height="26" viewBox="0 0 26 26" fill="none" xmlns="http://www.w3.org/2000/svg">
<path d="M13.3416 8.10107C12.1695 8.10107 11.0454 8.5667 10.2166 9.39552C9.38775 10.2243 8.92212 11.3485 8.92212 12.5206C8.92212 13.6927 9.38775 14.8168 10.2166 15.6457C11.0454 16.4745 12.1695 16.9401 13.3416 16.9401C14.5138 16.9401 15.6379 16.4745 16.4667 15.6457C17.2955 14.8168 17.7612 13.6927 17.7612 12.5206C17.7612 11.3485 17.2955 10.2243 16.4667 9.39552C15.6379 8.5667 14.5138 8.10107 13.3416 8.10107Z" fill="white"/>
<path fill-rule="evenodd" clip-rule="evenodd" d="M6.22956 0.392962C10.9564 -0.130987 15.7267 -0.130987 20.4536 0.392962C23.036 0.681251 25.1179 2.71423 25.4211 5.3061C25.9817 10.0991 25.9817 14.9411 25.4211 19.7341C25.1179 22.326 23.036 24.359 20.455 24.6486C15.7276 25.1727 10.9569 25.1727 6.22956 24.6486C3.6472 24.359 1.56527 22.326 1.26202 19.7355C0.701396 14.942 0.701396 10.0996 1.26202 5.3061C1.56527 2.71423 3.6472 0.681251 6.22956 0.392962ZM20.1408 4.36101C19.7802 4.36101 19.4343 4.50428 19.1793 4.7593C18.9243 5.01432 18.781 5.3602 18.781 5.72086C18.781 6.08151 18.9243 6.4274 19.1793 6.68242C19.4343 6.93744 19.7802 7.08071 20.1408 7.08071C20.5015 7.08071 20.8474 6.93744 21.1024 6.68242C21.3574 6.4274 21.5007 6.08151 21.5007 5.72086C21.5007 5.3602 21.3574 5.01432 21.1024 4.7593C20.8474 4.50428 20.5015 4.36101 20.1408 4.36101ZM6.88229 12.5201C6.88229 10.807 7.56282 9.16406 8.77417 7.9527C9.98553 6.74135 11.6285 6.06082 13.3416 6.06082C15.0547 6.06082 16.6976 6.74135 17.909 7.9527C19.1203 9.16406 19.8009 10.807 19.8009 12.5201C19.8009 14.2332 19.1203 15.8762 17.909 17.0875C16.6976 18.2989 15.0547 18.9794 13.3416 18.9794C11.6285 18.9794 9.98553 18.2989 8.77417 17.0875C7.56282 15.8762 6.88229 14.2332 6.88229 12.5201Z" fill="white"/>
</svg>
