<svg width="21" height="21" viewBox="0 0 21 21" fill="none" xmlns="http://www.w3.org/2000/svg">
<path fill-rule="evenodd" clip-rule="evenodd" d="M10.4167 0.0834961C4.66354 0.0834961 0 4.74704 0 10.5002C0 12.4689 0.546875 14.3127 1.49792 15.8835L0.56875 19.0418C0.515401 19.2232 0.51189 19.4155 0.558588 19.5987C0.605286 19.7818 0.700466 19.949 0.834124 20.0827C0.967782 20.2164 1.13498 20.3115 1.31814 20.3582C1.5013 20.4049 1.69366 20.4014 1.875 20.3481L5.03333 19.4189C6.65695 20.4013 8.51898 20.9194 10.4167 20.9168C16.1698 20.9168 20.8333 16.2533 20.8333 10.5002C20.8333 4.74704 16.1698 0.0834961 10.4167 0.0834961ZM8.06042 12.8575C10.1677 14.9637 12.1792 15.2418 12.8896 15.2679C13.9698 15.3075 15.0219 14.4825 15.4313 13.5252C15.4829 13.4061 15.5017 13.2753 15.4856 13.1465C15.4694 13.0177 15.419 12.8955 15.3396 12.7929C14.7688 12.0637 13.9969 11.5397 13.2427 11.0189C13.0852 10.91 12.8917 10.8664 12.7028 10.897C12.5138 10.9277 12.3441 11.0304 12.2292 11.1835L11.6042 12.1366C11.5713 12.1879 11.5201 12.2246 11.461 12.2393C11.402 12.254 11.3395 12.2456 11.2865 12.2158C10.8625 11.9731 10.2448 11.5606 9.80104 11.1168C9.35729 10.6731 8.96979 10.0835 8.75208 9.68662C8.72509 9.6362 8.71729 9.5777 8.73012 9.52197C8.74295 9.46623 8.77555 9.41704 8.82188 9.3835L9.78438 8.66891C9.92174 8.54948 10.0104 8.3837 10.0334 8.20314C10.0565 8.02259 10.0123 7.83986 9.90938 7.68975C9.44271 7.00641 8.89896 6.13766 8.11042 5.56162C8.00865 5.48788 7.88944 5.44189 7.76451 5.42819C7.63959 5.4145 7.51324 5.43355 7.39792 5.4835C6.43958 5.89391 5.61042 6.946 5.65 8.02829C5.67604 8.7387 5.95417 10.7502 8.06042 12.8575Z" fill="white"/>
</svg>
