<svg width="22" height="24" viewBox="0 0 22 24" fill="none" xmlns="http://www.w3.org/2000/svg">
<path d="M11.0129 7.5957C10.0117 7.5957 9.05157 8.0323 8.34365 8.80944C7.63574 9.58658 7.23804 10.6406 7.23804 11.7396C7.23804 12.8387 7.63574 13.8927 8.34365 14.6699C9.05157 15.447 10.0117 15.8836 11.0129 15.8836C12.014 15.8836 12.9741 15.447 13.682 14.6699C14.39 13.8927 14.7877 12.8387 14.7877 11.7396C14.7877 10.6406 14.39 9.58658 13.682 8.80944C12.9741 8.0323 12.014 7.5957 11.0129 7.5957Z" fill="white"/>
<path fill-rule="evenodd" clip-rule="evenodd" d="M4.93869 0.36846C8.97603 -0.12282 13.0505 -0.12282 17.0878 0.36846C19.2934 0.638772 21.0717 2.54499 21.3307 4.97525C21.8095 9.46939 21.8095 14.0095 21.3307 18.5036C21.0717 20.9339 19.2934 22.8401 17.0889 23.1117C13.0512 23.6031 8.97641 23.6031 4.93869 23.1117C2.73304 22.8401 0.954815 20.9339 0.695805 18.5049C0.216958 14.0103 0.216958 9.46982 0.695805 4.97525C0.954815 2.54499 2.73304 0.638772 4.93869 0.36846ZM16.8206 4.08908C16.5126 4.08908 16.2172 4.22342 15.9994 4.46254C15.7815 4.70166 15.6592 5.02598 15.6592 5.36414C15.6592 5.70231 15.7815 6.02663 15.9994 6.26575C16.2172 6.50487 16.5126 6.6392 16.8206 6.6392C17.1287 6.6392 17.4241 6.50487 17.6419 6.26575C17.8598 6.02663 17.9821 5.70231 17.9821 5.36414C17.9821 5.02598 17.8598 4.70166 17.6419 4.46254C17.4241 4.22342 17.1287 4.08908 16.8206 4.08908ZM5.49621 11.7394C5.49621 10.1331 6.07746 8.59264 7.11211 7.45682C8.14675 6.321 9.55003 5.68291 11.0132 5.68291C12.4764 5.68291 13.8797 6.321 14.9144 7.45682C15.949 8.59264 16.5303 10.1331 16.5303 11.7394C16.5303 13.3457 15.949 14.8862 14.9144 16.0221C13.8797 17.1579 12.4764 17.796 11.0132 17.796C9.55003 17.796 8.14675 17.1579 7.11211 16.0221C6.07746 14.8862 5.49621 13.3457 5.49621 11.7394Z" fill="white"/>
</svg>
