<svg width="22" height="20" viewBox="0 0 22 20" fill="none" xmlns="http://www.w3.org/2000/svg">
<path d="M0.450804 4.41393C0.489512 3.44421 0.867672 2.52831 1.50645 1.85717C2.14522 1.18604 2.99531 0.811456 3.8795 0.811523H18.3691C19.2533 0.811456 20.1034 1.18604 20.7422 1.85717C21.3809 2.52831 21.7591 3.44421 21.7978 4.41393L20.6722 5.10042L11.1243 10.7439L1.57642 5.10042L0.450804 4.41393ZM0.447754 6.32689V15.4622C0.447754 16.4614 0.809312 17.4196 1.45289 18.1261C2.09647 18.8327 2.96935 19.2296 3.8795 19.2296H18.3691C19.2793 19.2296 20.1521 18.8327 20.7957 18.1261C21.4393 17.4196 21.8008 16.4614 21.8008 15.4622V6.32689L21.3997 6.57219L11.4858 12.4325C11.3747 12.4981 11.2505 12.5325 11.1243 12.5325C10.9981 12.5325 10.8739 12.4981 10.7628 12.4325L0.839736 6.56633L0.447754 6.32689Z" fill="white"/>
</svg>
