<svg width="18" height="21" viewBox="0 0 18 21" fill="none" xmlns="http://www.w3.org/2000/svg">
<path d="M6.51504 13.2674L6.51488 13.2672C4.61691 11.1826 4.35123 9.17238 4.32608 8.41922L4.32608 8.41918C4.28486 7.1819 5.12825 6.02361 6.106 5.56393C6.28806 5.47782 6.49028 5.44391 6.69161 5.46814C6.89345 5.49244 7.08172 5.5736 7.23858 5.69838L7.24011 5.6996C7.91993 6.24479 8.40367 7.03249 8.76937 7.62799C8.8105 7.69496 8.85013 7.7595 8.88838 7.82099C9.03779 8.06056 9.09881 8.34587 9.06644 8.62424C9.03402 8.90303 8.90854 9.16804 8.7023 9.36489L8.68813 9.37841L8.67295 9.39079L8.02125 9.92194C8.2008 10.2496 8.46038 10.6538 8.74094 10.9618C8.99797 11.244 9.34191 11.5198 9.64233 11.7301L10.016 11.1046L10.0238 11.0914L10.0325 11.0788C10.2013 10.8319 10.4598 10.654 10.762 10.6002C11.0654 10.5461 11.3713 10.6248 11.6132 10.8084M6.51504 13.2674L11.3109 11.2067M6.51504 13.2674C8.41843 15.3559 10.2702 15.6614 10.9892 15.6903C11.5976 15.7148 12.1661 15.4722 12.6182 15.1176C13.0704 14.7629 13.4371 14.2733 13.6452 13.7405M6.51504 13.2674L13.6452 13.7405M11.6132 10.8084L11.3109 11.2067M11.6132 10.8084C11.6131 10.8084 11.6131 10.8083 11.613 10.8082L11.3109 11.2067M11.6132 10.8084C11.636 10.8257 11.6589 10.843 11.6819 10.8604C12.2965 11.3259 12.9888 11.8502 13.509 12.5797L13.5106 12.582L13.5106 12.582C13.6283 12.749 13.7004 12.9436 13.7234 13.1449L13.2266 13.2016M11.3109 11.2067C11.3275 11.2193 11.3441 11.2319 11.3607 11.2444C11.9889 11.7205 12.6269 12.2039 13.1019 12.87C13.1698 12.9663 13.2128 13.0808 13.2266 13.2016M13.2266 13.2016L13.7234 13.1449C13.7463 13.3462 13.7199 13.5515 13.6452 13.7405M13.2266 13.2016C13.2404 13.3224 13.2243 13.445 13.1802 13.5567M13.6452 13.7405L4.8258 8.40253C4.84804 9.06865 5.08559 10.9547 6.88459 12.9306C8.68448 14.9055 10.4025 15.1663 11.0093 15.1907C11.9319 15.2278 12.8305 14.4543 13.1802 13.5567M13.6452 13.7405L13.1802 13.5567M13.6452 13.7405C13.6455 13.7397 13.6458 13.7389 13.6461 13.7381L13.1802 13.5567M1.76236 15.8974L1.8145 15.7028L1.71724 15.5265C0.94563 14.1274 0.5 12.4817 0.5 10.7203C0.5 5.5571 4.30226 1.45312 8.89712 1.45312C13.492 1.45312 17.2942 5.5571 17.2942 10.7203C17.2942 15.8835 13.492 19.9874 8.89712 19.9874H8.89638C7.377 19.9897 5.88268 19.5345 4.57574 18.6664L4.37488 18.533L4.14542 18.6071L1.44782 19.4783C1.38624 19.4982 1.32225 19.4994 1.26062 19.4822C1.19854 19.4648 1.13596 19.4278 1.08208 19.3686C1.0279 19.3091 0.985476 19.2302 0.964141 19.1384C0.942794 19.0464 0.944457 18.9494 0.96874 18.8588L0.486112 18.7294L0.968741 18.8588L1.76236 15.8974ZM8.46383 8.0851C8.42465 8.02212 8.38483 7.95745 8.34424 7.89154C7.97192 7.28688 7.53461 6.5767 6.9273 6.08967C6.84038 6.02052 6.73856 5.97741 6.63186 5.96456C6.52515 5.95172 6.41724 5.96959 6.31874 6.01642L8.46383 8.0851Z" fill="white" stroke="white"/>
</svg>
