<svg width="21" height="26" viewBox="0 0 21 26" fill="none" xmlns="http://www.w3.org/2000/svg">
<path d="M13.125 0H2.625C1.92881 0 1.26113 0.273928 0.768845 0.761522C0.276562 1.24912 0 1.91044 0 2.6V23.4C0 24.0896 0.276562 24.7509 0.768845 25.2385C1.26113 25.7261 1.92881 26 2.625 26H18.375C19.0712 26 19.7389 25.7261 20.2312 25.2385C20.7234 24.7509 21 24.0896 21 23.4V7.8L13.125 0ZM18.375 23.4H2.625V2.6H11.8125V9.1H18.375V23.4ZM7.875 14.3H3.9375V11.7H7.875V14.3ZM13.125 14.3H9.1875V11.7H13.125V14.3ZM7.875 18.2H3.9375V15.6H7.875V18.2ZM13.125 18.2H9.1875V15.6H13.125V18.2ZM7.875 22.1H3.9375V19.5H7.875V22.1ZM13.125 22.1H9.1875V19.5H13.125V22.1Z" fill="#3389C3"/>
</svg>
