<svg width="14" height="17" viewBox="0 0 14 17" fill="none" xmlns="http://www.w3.org/2000/svg">
<path d="M8.35 0H1.67C1.22709 0 0.802317 0.17427 0.489132 0.484473C0.175946 0.794676 0 1.2154 0 1.6541V14.8869C0 15.3256 0.175946 15.7463 0.489132 16.0565C0.802317 16.3667 1.22709 16.541 1.67 16.541H11.69C12.1329 16.541 12.5577 16.3667 12.8709 16.0565C13.1841 15.7463 13.36 15.3256 13.36 14.8869V4.96229L8.35 0ZM11.69 14.8869H1.67V1.6541H7.515V5.78933H11.69V14.8869ZM5.01 9.09752H2.505V7.44343H5.01V9.09752ZM8.35 9.09752H5.845V7.44343H8.35V9.09752ZM5.01 11.5787H2.505V9.92457H5.01V11.5787ZM8.35 11.5787H5.845V9.92457H8.35V11.5787ZM5.01 14.0598H2.505V12.4057H5.01V14.0598ZM8.35 14.0598H5.845V12.4057H8.35V14.0598Z" fill="#3389C3"/>
</svg>
