<svg width="21" height="21" viewBox="0 0 21 21" fill="none" xmlns="http://www.w3.org/2000/svg">
<path d="M13.5 12.5C14.8261 12.5 16.0979 13.0268 17.0355 13.9645C17.9732 14.9021 18.5 16.1739 18.5 17.5V18.5C18.5 19.0304 18.2893 19.5391 17.9142 19.9142C17.5391 20.2893 17.0304 20.5 16.5 20.5H2.5C1.96957 20.5 1.46086 20.2893 1.08579 19.9142C0.710714 19.5391 0.5 19.0304 0.5 18.5V17.5C0.5 16.1739 1.02678 14.9021 1.96447 13.9645C2.90215 13.0268 4.17392 12.5 5.5 12.5H13.5ZM17.5 6.5C17.7652 6.5 18.0196 6.60536 18.2071 6.79289C18.3946 6.98043 18.5 7.23478 18.5 7.5V8.5H19.5C19.7652 8.5 20.0196 8.60536 20.2071 8.79289C20.3946 8.98043 20.5 9.23478 20.5 9.5C20.5 9.76522 20.3946 10.0196 20.2071 10.2071C20.0196 10.3946 19.7652 10.5 19.5 10.5H18.5V11.5C18.5 11.7652 18.3946 12.0196 18.2071 12.2071C18.0196 12.3946 17.7652 12.5 17.5 12.5C17.2348 12.5 16.9804 12.3946 16.7929 12.2071C16.6054 12.0196 16.5 11.7652 16.5 11.5V10.5H15.5C15.2348 10.5 14.9804 10.3946 14.7929 10.2071C14.6054 10.0196 14.5 9.76522 14.5 9.5C14.5 9.23478 14.6054 8.98043 14.7929 8.79289C14.9804 8.60536 15.2348 8.5 15.5 8.5H16.5V7.5C16.5 7.23478 16.6054 6.98043 16.7929 6.79289C16.9804 6.60536 17.2348 6.5 17.5 6.5ZM9.5 0.5C10.8261 0.5 12.0979 1.02678 13.0355 1.96447C13.9732 2.90215 14.5 4.17392 14.5 5.5C14.5 6.82608 13.9732 8.09785 13.0355 9.03553C12.0979 9.97322 10.8261 10.5 9.5 10.5C8.17392 10.5 6.90215 9.97322 5.96447 9.03553C5.02678 8.09785 4.5 6.82608 4.5 5.5C4.5 4.17392 5.02678 2.90215 5.96447 1.96447C6.90215 1.02678 8.17392 0.5 9.5 0.5Z" fill="#01BAFF"/>
</svg>
