<svg width="19" height="21" viewBox="0 0 19 21" fill="none" xmlns="http://www.w3.org/2000/svg">
<path fill-rule="evenodd" clip-rule="evenodd" d="M9.5 0.5C9.23478 0.5 8.98043 0.605357 8.79289 0.792893C8.60536 0.98043 8.5 1.23478 8.5 1.5V3.5H2.5C1.96957 3.5 1.46086 3.71071 1.08579 4.08579C0.710714 4.46086 0.5 4.96957 0.5 5.5V18.5C0.5 19.0304 0.710714 19.5391 1.08579 19.9142C1.46086 20.2893 1.96957 20.5 2.5 20.5H16.5C17.0304 20.5 17.5391 20.2893 17.9142 19.9142C18.2893 19.5391 18.5 19.0304 18.5 18.5V5.5C18.5 4.96957 18.2893 4.46086 17.9142 4.08579C17.5391 3.71071 17.0304 3.5 16.5 3.5H10.5V1.5C10.5 1.23478 10.3946 0.98043 10.2071 0.792893C10.0196 0.605357 9.76522 0.5 9.5 0.5ZM10.5 3.5V12.328L12.328 10.5C12.5155 10.3124 12.7699 10.2069 13.0351 10.2068C13.3004 10.2067 13.5549 10.312 13.7425 10.4995C13.9301 10.687 14.0356 10.9414 14.0357 11.2066C14.0358 11.4719 13.9305 11.7264 13.743 11.914L10.383 15.273C10.1486 15.5072 9.83083 15.6387 9.4995 15.6387C9.16817 15.6387 8.85039 15.5072 8.616 15.273L5.257 11.914C5.16416 11.8211 5.09052 11.7108 5.0403 11.5894C4.99008 11.4681 4.96425 11.338 4.9643 11.2066C4.96434 11.0753 4.99026 10.9452 5.04057 10.8239C5.09088 10.7026 5.16459 10.5923 5.2575 10.4995C5.35041 10.4067 5.4607 10.333 5.58207 10.2828C5.70343 10.2326 5.8335 10.2068 5.96485 10.2068C6.0962 10.2068 6.22626 10.2328 6.34759 10.2831C6.46892 10.3334 6.57916 10.4071 6.672 10.5L8.5 12.328V3.5H10.5Z" fill="#01BAFF"/>
</svg>
